<?xml version="1.0" encoding="UTF-8" standalone="no"?>
<svg
   xmlns:dc="http://purl.org/dc/elements/1.1/"
   xmlns:cc="http://creativecommons.org/ns#"
   xmlns:rdf="http://www.w3.org/1999/02/22-rdf-syntax-ns#"
   xmlns:svg="http://www.w3.org/2000/svg"
   xmlns="http://www.w3.org/2000/svg"
   xmlns:sodipodi="http://sodipodi.sourceforge.net/DTD/sodipodi-0.dtd"
   xmlns:inkscape="http://www.inkscape.org/namespaces/inkscape"
   inkscape:export-ydpi="440"
   inkscape:export-xdpi="440"
   inkscape:export-filename="C:\Users\raymo\Git\Goose\icon.png"
   inkscape:version="1.0 (4035a4fb49, 2020-05-01)"
   sodipodi:docname="icon.svg"
   id="svg8"
   version="1.1"
   width="500pt"
   viewBox="-14 0 498.9918 520"
   height="520pt">
  <metadata
     id="metadata14">
    <rdf:RDF>
      <cc:Work
         rdf:about="">
        <dc:format>image/svg+xml</dc:format>
        <dc:type
           rdf:resource="http://purl.org/dc/dcmitype/StillImage" />
        <dc:title></dc:title>
      </cc:Work>
    </rdf:RDF>
  </metadata>
  <defs
     id="defs12" />
  <sodipodi:namedview
     inkscape:current-layer="svg8"
     inkscape:window-maximized="0"
     inkscape:window-y="0"
     inkscape:window-x="0"
     inkscape:cy="319.75028"
     inkscape:cx="269.29726"
     inkscape:zoom="0.76209677"
     showgrid="false"
     id="namedview10"
     inkscape:window-height="1034"
     inkscape:window-width="1918"
     inkscape:pageshadow="2"
     inkscape:pageopacity="0"
     guidetolerance="10"
     gridtolerance="10"
     objecttolerance="10"
     borderopacity="1"
     bordercolor="#666666"
     pagecolor="#ffffff"
     inkscape:document-rotation="0" />
  <path
     style="fill:#e4b429;fill-opacity:1"
     id="path2"
     fill="#f0bc5e"
     d="m 202.07812,394.12271 c 11.1211,4.16016 22.72266,6.48047 33.92188,6.48047 45.19922,0 87.76172,-21.67969 114.32031,-58.23828 L 356,334.60318 l 1.12109,-1.92188 c 7.83985,4.32032 16.23828,7.44141 25.11719,9.20313 L 396,344.60318 374.32031,374.3649 C 347.76172,410.92349 305.19922,432.60318 260,432.60318 c -36.48047,0 -77.28125,-24.32031 -91.03906,-57.67969 l 2.23828,1.67969 c 9.19922,7.35937 19.83984,13.44141 30.8789,17.51953 z m 0,0" />
  <path
     sodipodi:nodetypes="ccssscsscccsscccsscscccccccccccccccccsscccsccccsccssscccsccscsccscssccccsscccscccs"
     id="path4"
     d="m 396.79297,336.60318 -13.01563,-2.60156 C 368.18359,330.88443 354,323.29068 342.76172,312.0524 l -19.25,-19.25 c -18.19141,-18.19141 -42.35938,-28.19922 -68.07031,-28.19922 -6.59375,0 -36.69327,2.23791 -47.98109,11.77877 L 236,102.84146 c 7.00067,-42.56882 -35.10547,-78.238285 -78.23828,-78.238285 -23.89844,0 -46.16797,10.703125 -61.089845,29.359375 L 86.601562,66.540675 28.59375,102.79458 C 23.207031,106.15396 20,111.95474 20,118.3063 c 0,10.08985 8.207031,18.29688 18.296875,18.29688 h 51.277344 l 0.9375,0.625 c 11.527341,7.6875 23.902341,14.16797 36.792971,19.26172 2.80859,1.11328 4.69531,4.04297 4.69531,7.28125 v 20.65625 c 0,35.97656 -10.54297,70.8164 -30.49609,100.74219 C 90.054688,302.32974 84,322.31412 84,342.95474 c 0,19.04688 5.214844,37.71875 15.09766,54.00781 l 4.00781,6.625 C 132.23828,451.64224 181.39063,484.35709 236,493.74771 l -26.09561,26.50753 h 16 L 252,495.81802 c 5.30469,0.45703 10.63281,0.76953 16,0.77735 l 19.13678,24.00781 h 16 L 284,495.90005 c 52.16797,-4.21875 100.25781,-29.19921 133.74219,-70.1289 l 16.1875,-19.77735 c 7.67187,-5.98437 13.4375,-14.26953 16.62109,-23.91796 16.12109,-5.24219 28.91406,-18.36719 33.21094,-35.52735 l 2.48437,-9.94531 z M 100,124.29849 38.296875,120.60318 C 37.033514,120.52751 36,119.57974 36,118.3063 c 0,-0.78125 0.414062,-1.52734 1.078125,-1.94141 L 100,75.411769 Z m 212.19141,179.8086 19.25,19.25 c 13.48046,13.48437 30.48828,22.58203 49.18359,26.32421 l 1.55078,0.31251 -14.30469,19.66406 C 342.85547,404.06802 302.52734,424.60318 260,424.60318 c -32.54297,0 -68.61719,-21.64063 -82.11328,-49.26563 -7,-14.32031 -11.19141,-36.71093 8.55469,-62.05468 15.9414,-20.46485 41.72656,-32.67969 69,-32.67969 21.42968,0 41.58984,8.34375 56.75,23.50391 z m 122.82422,64.49609 -17.23785,1.47619 L 404,384.60318 h 27.95312 c -6.13671,9.74219 -16.91406,16 -28.93749,16 L 385.77778,402.07937 372,416.60318 h 31.01563 c 0.55078,0 1.07421,-0.12109 1.62499,-0.13672 -33.76953,40.76172 -83.40234,64.13672 -136.375,64.13672 -61.53125,0 -119.57031,-32.6875 -151.48046,-85.30469 l -4.00782,-6.625 C 104.42578,374.89224 100,359.08365 100,342.95474 c 0,-17.47265 5.12891,-34.38281 14.81641,-48.91015 C 136.51953,261.47427 148,223.57193 148,184.4274 v -20.65625 c 0,-9.74219 -5.95312,-18.65625 -14.80859,-22.16016 C 121.57422,137.01724 110.41406,131.18912 100,124.29849 V 75.411769 l 9.16797,-11.449219 c 11.87109,-14.847656 29.58594,-23.359375 48.59375,-23.359375 34.3164,0 68.22415,28.44797 62.23828,62.238285 l -32.398,182.88727 c 39.80568,17.74324 7.3058,-36.22123 0,0 -35.60529,38.14118 -41.22979,66.65669 -24.08247,96.62836 16.21484,33.20703 57.69531,58.24609 96.48047,58.24609 47.63281,0 92.80859,-23 120.82422,-61.51953 l 19.24609,-26.48047 h 63.9375 c -6.13672,9.76172 -16.95312,16 -28.99218,16 z" />
  <path
     style="fill:#e4b429;fill-opacity:1;stroke:#000000;stroke-width:3.75;stroke-miterlimit:4;stroke-dasharray:none;stroke-opacity:0.992157"
     id="path6"
     d="m 143.57143,88.968255 c 0,4.417969 -3.58203,8 -8,8 -4.41797,0 -8,-3.582031 -8,-8 0,-4.417969 3.58203,-8 8,-8 4.41797,0 8,3.582031 8,8 z m 0,0" />
  <path
     sodipodi:nodetypes="cc"
     id="path846"
     d="m 97.78571,72.70542 c 0,0 17.5,28.2725 0,54.79149"
     style="fill:none;stroke:#000000;stroke-width:3.75;stroke-linecap:butt;stroke-linejoin:miter;stroke-miterlimit:4;stroke-dasharray:none;stroke-opacity:1" />
  <path
     id="path852"
     d="m 81.604035,123.10539 c -7.104166,-0.44366 -19.780952,-1.21145 -28.170636,-1.7062 -8.389682,-0.49475 -15.568646,-1.02289 -15.953253,-1.17365 -0.390296,-0.15299 -0.868742,-0.62945 -1.082791,-1.07831 -0.817174,-1.71363 -1.862922,-0.94058 24.384039,-18.02568 13.279239,-8.643945 27.041371,-17.603456 30.582518,-19.910029 l 6.438458,-4.193767 0.91679,2.131094 c 3.01258,7.00285 4.46082,13.393303 4.69259,20.706494 0.26089,8.231638 -1.12031,14.831458 -4.53103,21.650788 l -1.16902,2.3373 -1.595495,0.0343 c -0.87753,0.0188 -7.408005,-0.32869 -14.51217,-0.77235 z"
     style="fill:#e4b429;fill-opacity:1;stroke:#000000;stroke-width:1.23016;stroke-miterlimit:4;stroke-dasharray:none;stroke-opacity:0.992157" />
  <path
     style="fill:#ffffff;stroke:#000000;stroke-width:0;stroke-miterlimit:4;stroke-dasharray:none;stroke-opacity:0.992157"
     d="m 244.18809,478.37794 c -37.03846,-5.39106 -71.21651,-22.07851 -98.20329,-47.94783 -20.13575,-19.30198 -37.24716,-45.77956 -42.73417,-66.12532 -3.07132,-11.38842 -3.13181,-31.30228 -0.12875,-42.38192 2.83055,-10.44313 6.69664,-18.89316 13.53038,-29.57305 21.84653,-34.14215 31.9999,-70.97097 32.00241,-116.08071 0.002,-25.94918 -1.36894,-28.07718 -25.91218,-40.2378 -9.29309,-4.60452 -17.6255,-8.94897 -18.51647,-9.65432 -1.49133,-1.18066 -1.4238,-1.86575 0.85062,-8.62972 4.02397,-11.96699 3.33317,-27.03803 -1.78989,-39.049392 l -1.76858,-4.146577 6.4036,-7.931277 c 7.6878,-9.521847 14.26267,-14.928669 23.53973,-19.357808 20.16037,-9.625149 42.29681,-7.821329 62.46384,5.089959 11.39512,7.295362 19.70442,17.281692 23.76595,28.562541 3.8753,10.763561 3.51821,13.598853 -14.21146,112.838984 l -16.29805,91.2267 -6.56187,7.67806 c -13.71762,16.05104 -22.66769,32.12861 -25.48008,45.7715 -3.05723,14.83057 -1.3532,25.39142 6.7157,41.62086 14.21592,28.59334 39.17826,48.28231 73.37282,57.87263 6.3543,1.78215 10.14813,2.08433 26.60175,2.11886 20.94095,0.0439 27.67108,-0.93559 44.76049,-6.51459 31.49361,-10.28139 55.46249,-28.4313 78.4198,-59.38166 6.42375,-8.66032 12.66824,-16.98299 13.87662,-18.49484 l 2.19706,-2.74879 30.94046,0.28847 30.94046,0.28849 -3.10421,3.53488 c -1.70733,1.9442 -5.80926,4.97667 -9.11541,6.73883 -5.29311,2.82121 -7.64223,3.37381 -19.6653,4.62609 l -13.65412,1.42217 -6.69475,6.91952 c -3.68211,3.80573 -6.83814,7.317 -7.01338,7.80282 -0.17539,0.48625 5.79688,1.00662 13.28571,1.15761 l 13.60435,0.27427 -4.37276,4.32407 c -6.89312,6.81638 -12.60851,8.91123 -27.77422,10.18005 l -12.98289,1.08619 -6.46681,6.83161 c -3.55675,3.75739 -6.61444,7.22458 -6.79486,7.70485 -0.18216,0.48491 6.49191,0.87323 15.00794,0.87323 8.43479,0 15.33598,0.39125 15.33598,0.86943 0,1.81568 -23.64882,23.52911 -32.53579,29.8731 -16.65329,11.888 -42.02105,23.21456 -62.43247,27.87574 -18.94519,4.32635 -45.02207,5.47963 -63.40391,2.80409 z M 142.82643,96.205873 c 4.96669,-4.96669 3.53675,-13.36612 -2.7863,-16.366602 -9.07866,-4.308106 -17.88001,4.519349 -13.56735,13.607594 1.89168,3.986419 4.49038,5.476757 9.71079,5.569082 2.90311,0.05134 4.42541,-0.592626 6.64286,-2.810074 z"
     id="path838" />
  <path
     style="fill:#ffffff;stroke:#000000;stroke-width:0;stroke-miterlimit:4;stroke-dasharray:none;stroke-opacity:0.992157"
     d="m 222.95708,399.13388 c -8.91065,-1.28501 -18.63383,-4.42241 -29.16553,-9.4109 -9.07258,-4.29737 -9.63829,-4.75294 -13.07126,-10.52641 -10.75629,-18.08961 -10.54733,-38.54538 0.58776,-57.53697 4.47166,-7.62671 20.46084,-23.4024 28.36331,-27.98463 27.86468,-16.15725 61.35464,-16.53982 86.96672,-0.99349 3.44545,2.09136 13.32926,10.73371 23.0431,20.14875 9.35539,9.06762 19.98396,18.56772 23.61904,21.11134 3.63509,2.54362 6.96776,4.92872 7.40594,5.30022 2.03052,1.72149 -17.8758,23.12565 -30.32051,32.60196 -26.9818,20.54592 -66.81872,31.7044 -97.42857,27.29013 z"
     id="path840" />
</svg>
