<?xml version="1.0" encoding="UTF-8"?>
<svg version="1.1" viewBox="0 0 640 480" xmlns="http://www.w3.org/2000/svg" xmlns:xlink="http://www.w3.org/1999/xlink">
 <defs>
  <linearGradient id="cz">
   <stop offset="0"/>
   <stop stop-opacity="0" offset="1"/>
  </linearGradient>
  <linearGradient id="cy">
   <stop stop-color="#0b0b09" offset="0"/>
   <stop stop-color="#0b0b09" stop-opacity="0" offset="1"/>
  </linearGradient>
  <filter id="dx">
   <feGaussianBlur stdDeviation="0.56382168"/>
  </filter>
  <filter id="dy" x="-.81957" y="-.70248" width="2.6391" height="2.405">
   <feGaussianBlur stdDeviation="0.37631959"/>
  </filter>
  <filter id="dz" x="-.12133" y="-.037584" width="1.2427" height="1.0752">
   <feGaussianBlur stdDeviation="0.9430564"/>
  </filter>
  <filter id="ea">
   <feGaussianBlur stdDeviation="0.35724059"/>
  </filter>
  <filter id="eb">
   <feGaussianBlur stdDeviation="0.48240206"/>
  </filter>
  <filter id="ec">
   <feGaussianBlur stdDeviation="0.24292361"/>
  </filter>
  <filter id="ed">
   <feGaussianBlur stdDeviation="0.24268935"/>
  </filter>
  <filter id="ee">
   <feGaussianBlur stdDeviation="0.35766952"/>
  </filter>
  <filter id="ef" x="-.077532" y="-.15808" width="1.1551" height="1.3162">
   <feGaussianBlur stdDeviation="0.64294563"/>
  </filter>
  <filter id="eg">
   <feGaussianBlur stdDeviation="0.64294563"/>
  </filter>
  <filter id="eh">
   <feGaussianBlur stdDeviation="0.16137013"/>
  </filter>
  <filter id="ei" x="-.085213" y="-.20289" width="1.1704" height="1.4058">
   <feGaussianBlur stdDeviation="0.45756672"/>
  </filter>
  <filter id="ej" x="-.086952" y="-.19367" width="1.1739" height="1.3873">
   <feGaussianBlur stdDeviation="0.45756672"/>
  </filter>
  <filter id="ek" x="-.076083" y="-.21303" width="1.1522" height="1.4261">
   <feGaussianBlur stdDeviation="0.45756672"/>
  </filter>
  <filter id="el" x="-.066573" y="-.1578" width="1.1331" height="1.3156">
   <feGaussianBlur stdDeviation="0.45756672"/>
  </filter>
  <filter id="em" x="-.22859" y="-.32652" width="1.4572" height="1.653">
   <feGaussianBlur stdDeviation="0.45756672"/>
  </filter>
  <filter id="en" x="-.26924" y="-.33867" width="1.5385" height="1.6773">
   <feGaussianBlur stdDeviation="0.45756672"/>
  </filter>
  <filter id="eo" x="-.16595" y="-.24426" width="1.3319" height="1.4885">
   <feGaussianBlur stdDeviation="0.45756672"/>
  </filter>
  <filter id="ep" x="-.098028" y="-.22877" width="1.1961" height="1.4575">
   <feGaussianBlur stdDeviation="0.45756672"/>
  </filter>
  <filter id="eq" x="-.21395" y="-.19573" width="1.4279" height="1.3915">
   <feGaussianBlur stdDeviation="0.45756672"/>
  </filter>
  <filter id="er" x="-.21139" y="-.19779" width="1.4228" height="1.3956">
   <feGaussianBlur stdDeviation="0.45756672"/>
  </filter>
  <filter id="es">
   <feGaussianBlur stdDeviation="0.45756672"/>
  </filter>
  <filter id="et" x="-.20728" y="-.35551" width="1.4146" height="1.711">
   <feGaussianBlur stdDeviation="0.45756672"/>
  </filter>
  <filter id="eu">
   <feGaussianBlur stdDeviation="0.45756672"/>
  </filter>
  <filter id="ew">
   <feGaussianBlur stdDeviation="0.45756672"/>
  </filter>
  <filter id="ex" x="-.12441" y="-.30413" width="1.2488" height="1.6083">
   <feGaussianBlur stdDeviation="0.45756672"/>
  </filter>
  <filter id="ey">
   <feGaussianBlur stdDeviation="0.45756672"/>
  </filter>
  <filter id="ez" x="-.10911" y="-.095466" width="1.2182" height="1.1909">
   <feGaussianBlur stdDeviation="0.45756672"/>
  </filter>
  <filter id="fa" x="-.2156" y="-.39241" width="1.4312" height="1.7848">
   <feGaussianBlur stdDeviation="0.45756672"/>
  </filter>
  <filter id="fb" x="-.13749" y="-.19364" width="1.275" height="1.3873">
   <feGaussianBlur stdDeviation="0.45756672"/>
  </filter>
  <filter id="fc" x="-.15648" y="-.18353" width="1.313" height="1.3671">
   <feGaussianBlur stdDeviation="0.45756672"/>
  </filter>
  <filter id="fd" x="-.11968" y="-.12521" width="1.2394" height="1.2504">
   <feGaussianBlur stdDeviation="0.45756672"/>
  </filter>
  <filter id="fe">
   <feGaussianBlur stdDeviation="0.45756672"/>
  </filter>
  <filter id="ff">
   <feGaussianBlur stdDeviation="0.45756672"/>
  </filter>
  <filter id="fg">
   <feGaussianBlur stdDeviation="0.45756672"/>
  </filter>
  <filter id="fh" x="-.089767" y="-.14855" width="1.1795" height="1.2971">
   <feGaussianBlur stdDeviation="0.45756672"/>
  </filter>
  <filter id="fi" x="-.14952" y="-.23852" width="1.299" height="1.477">
   <feGaussianBlur stdDeviation="0.45756672"/>
  </filter>
  <filter id="fj" x="-.11992" y="-.29189" width="1.2398" height="1.5838">
   <feGaussianBlur stdDeviation="0.45756672"/>
  </filter>
  <filter id="fk" x="-.1971" y="-.20543" width="1.3942" height="1.4109">
   <feGaussianBlur stdDeviation="0.45756672"/>
  </filter>
  <filter id="fl" x="-.13073" y="-.201" width="1.2615" height="1.402">
   <feGaussianBlur stdDeviation="0.45756672"/>
  </filter>
  <filter id="fm" x="-.12157" y="-.17591" width="1.2431" height="1.3518">
   <feGaussianBlur stdDeviation="0.45756672"/>
  </filter>
  <filter id="fn" x="-.10501" y="-.21926" width="1.21" height="1.4385">
   <feGaussianBlur stdDeviation="0.45756672"/>
  </filter>
  <filter id="fo">
   <feGaussianBlur stdDeviation="0.45756672"/>
  </filter>
  <filter id="fp">
   <feGaussianBlur stdDeviation="0.45756672"/>
  </filter>
  <filter id="fq" x="-.093009" y="-.12098" width="1.186" height="1.242">
   <feGaussianBlur stdDeviation="0.45756672"/>
  </filter>
  <filter id="fr" x="-.087277" y="-.1863" width="1.1746" height="1.3726">
   <feGaussianBlur stdDeviation="0.45756672"/>
  </filter>
  <filter id="fs" x="-.10959" y="-.24827" width="1.2192" height="1.4965">
   <feGaussianBlur stdDeviation="0.45756672"/>
  </filter>
  <filter id="ft" x="-.21626" y="-.2827" width="1.4325" height="1.5654">
   <feGaussianBlur stdDeviation="0.45756672"/>
  </filter>
  <filter id="fu" x="-.07424" y="-.14456" width="1.1485" height="1.2891">
   <feGaussianBlur stdDeviation="0.45756672"/>
  </filter>
  <filter id="fv" x="-.076325" y="-.12655" width="1.1526" height="1.2531">
   <feGaussianBlur stdDeviation="0.45756672"/>
  </filter>
  <filter id="fw">
   <feGaussianBlur stdDeviation="0.45756672"/>
  </filter>
  <filter id="fx">
   <feGaussianBlur stdDeviation="0.45756672"/>
  </filter>
  <filter id="fy" x="-.088204" y="-.1608" width="1.1764" height="1.3216">
   <feGaussianBlur stdDeviation="0.45756672"/>
  </filter>
  <filter id="fz" x="-.10447" y="-.12312" width="1.2089" height="1.2462">
   <feGaussianBlur stdDeviation="0.45756672"/>
  </filter>
  <filter id="ga" x="-.087027" y="-.17733" width="1.1741" height="1.3547">
   <feGaussianBlur stdDeviation="0.45756672"/>
  </filter>
  <filter id="gb">
   <feGaussianBlur stdDeviation="0.45756672"/>
  </filter>
  <filter id="gc" x="-.069684" y="-.10443" width="1.1394" height="1.2089">
   <feGaussianBlur stdDeviation="0.45756672"/>
  </filter>
  <filter id="gd" x="-.055901" y="-.11136" width="1.1118" height="1.2227">
   <feGaussianBlur stdDeviation="0.45756672"/>
  </filter>
  <filter id="ge" x="-.041122" y="-.10368" width="1.0822" height="1.2074">
   <feGaussianBlur stdDeviation="0.45756672"/>
  </filter>
  <filter id="gf" x="-.049271" y="-.11086" width="1.0985" height="1.2217">
   <feGaussianBlur stdDeviation="0.45756672"/>
  </filter>
  <filter id="gg">
   <feGaussianBlur stdDeviation="0.45756672"/>
  </filter>
  <filter id="gh">
   <feGaussianBlur stdDeviation="0.45756672"/>
  </filter>
  <filter id="gi">
   <feGaussianBlur stdDeviation="0.45756672"/>
  </filter>
  <filter id="gj">
   <feGaussianBlur stdDeviation="0.45756672"/>
  </filter>
  <filter id="gk">
   <feGaussianBlur stdDeviation="0.45756672"/>
  </filter>
  <filter id="gl">
   <feGaussianBlur stdDeviation="0.45756672"/>
  </filter>
  <filter id="gm" x="-.11202" y="-.073346" width="1.224" height="1.1467">
   <feGaussianBlur stdDeviation="0.45756672"/>
  </filter>
  <filter id="gn">
   <feGaussianBlur stdDeviation="0.45756672"/>
  </filter>
  <filter id="go">
   <feGaussianBlur stdDeviation="0.45756672"/>
  </filter>
  <filter id="gp" x="-.05563" y="-.11362" width="1.1113" height="1.2272">
   <feGaussianBlur stdDeviation="0.45756672"/>
  </filter>
  <filter id="gq" x="-.057632" y="-.10658" width="1.1153" height="1.2132">
   <feGaussianBlur stdDeviation="0.45756672"/>
  </filter>
  <filter id="gr">
   <feGaussianBlur stdDeviation="0.45756672"/>
  </filter>
  <filter id="gs">
   <feGaussianBlur stdDeviation="0.45756672"/>
  </filter>
  <filter id="gt" x="-.049289" y="-.15079" width="1.0986" height="1.3016">
   <feGaussianBlur stdDeviation="0.45756672"/>
  </filter>
  <filter id="gu" x="-.085582" y="-.13639" width="1.1712" height="1.2728">
   <feGaussianBlur stdDeviation="0.45756672"/>
  </filter>
  <filter id="gv" x="-.042681" y="-.10774" width="1.0854" height="1.2155">
   <feGaussianBlur stdDeviation="0.45756672"/>
  </filter>
  <filter id="da">
   <feGaussianBlur stdDeviation="0.45756672"/>
  </filter>
  <filter id="db">
   <feGaussianBlur stdDeviation="0.45756672"/>
  </filter>
  <filter id="dc">
   <feGaussianBlur stdDeviation="0.45756672"/>
  </filter>
  <filter id="dd">
   <feGaussianBlur stdDeviation="0.45756672"/>
  </filter>
  <filter id="de">
   <feGaussianBlur stdDeviation="0.34071282"/>
  </filter>
  <filter id="df">
   <feGaussianBlur stdDeviation="0.39104343"/>
  </filter>
  <filter id="dg">
   <feGaussianBlur stdDeviation="0.34598954"/>
  </filter>
  <filter id="dh">
   <feGaussianBlur stdDeviation="0.24890052"/>
  </filter>
  <filter id="di">
   <feGaussianBlur stdDeviation="0.38357864"/>
  </filter>
  <filter id="dj" x="-.20762" y="-.08964" width="1.4152" height="1.1793">
   <feGaussianBlur stdDeviation="0.51217796"/>
  </filter>
  <filter id="dk">
   <feGaussianBlur stdDeviation="0.47858768"/>
  </filter>
  <filter id="dl">
   <feGaussianBlur stdDeviation="0.52058279"/>
  </filter>
  <filter id="dm">
   <feGaussianBlur stdDeviation="0.17038979"/>
  </filter>
  <filter id="dn" x="-.095447" y="-.18198" width="1.1909" height="1.364">
   <feGaussianBlur stdDeviation="0.81839844"/>
  </filter>
  <filter id="do" x="-.13827" y="-.14356" width="1.2765" height="1.2871">
   <feGaussianBlur stdDeviation="0.54378557"/>
  </filter>
  <filter id="dp" x="-.25005" y="-.088229" width="1.5001" height="1.1765">
   <feGaussianBlur stdDeviation="1.4370225"/>
  </filter>
  <linearGradient id="dq" x1="385.65" x2="400.58" y1="155.64" y2="142.97" gradientTransform="translate(24.052 -44.335)" gradientUnits="userSpaceOnUse" xlink:href="#cy"/>
  <linearGradient id="dr" x1="339.96" x2="349.97" y1="423" y2="292.05" gradientTransform="matrix(1 0 0 1.0061 25.473 -47.532)" gradientUnits="userSpaceOnUse" xlink:href="#cy"/>
  <linearGradient id="ds" x1="194.82" x2="246.17" y1="363.69" y2="335.07" gradientTransform="translate(23.871 -45.432)" gradientUnits="userSpaceOnUse" xlink:href="#cz"/>
  <linearGradient id="dt" x1="245.39" x2="219.16" y1="313.72" y2="340.92" gradientTransform="translate(24.236 -44.702)" gradientUnits="userSpaceOnUse">
   <stop stop-color="#999" offset="0"/>
   <stop stop-color="#999" stop-opacity="0" offset="1"/>
  </linearGradient>
  <linearGradient id="du" x1="330.03" x2="332.51" y1="383.22" y2="358.62" gradientTransform="translate(24.165 -44.142)" gradientUnits="userSpaceOnUse" xlink:href="#cz"/>
  <linearGradient id="dv" x1="270.42" x2="275.22" y1="357.23" y2="346.89" gradientTransform="translate(23.515 -44.942)" gradientUnits="userSpaceOnUse">
   <stop stop-color="#fff" offset="0"/>
   <stop stop-color="#fff" stop-opacity="0" offset="1"/>
  </linearGradient>
  <linearGradient id="dw" x1="372.94" x2="368.83" y1="294.42" y2="311.4" gradientTransform="translate(68.881 189.81)" gradientUnits="userSpaceOnUse">
   <stop stop-color="#6c6753" offset="0"/>
   <stop stop-color="#6c6753" stop-opacity="0" offset="1"/>
  </linearGradient>
  <linearGradient id="ev" x1="289.65" x2="290.09" y1="374.46" y2="387.68" gradientTransform="translate(24.236 -44.702)" gradientUnits="userSpaceOnUse">
   <stop stop-color="#1a1a1a" offset="0"/>
   <stop stop-color="#1a1a1a" stop-opacity="0" offset="1"/>
  </linearGradient>
 </defs>
 <g transform="matrix(1.1945 0 0 1.1945 -42.224 -22.978)">
  <path d="m478.81 99.918c-2.896-3.4435-5.5082-3.8936-10.063-5.6011s-9.7664-4.4893-16.025-7.8366c-5.1407-2.7497-9.9645-14.265-27.209-11.958-10.687 1.4295-13.837 4.7756-18.145 9.252-10.257 34.995-9.47 88.784-1.2659 108.92 2.5816 6.3369-1.7285 16.178-5.9075 21.027 3.1639 0.81487 6.1234 0.83907 6.662 0.57067 4.895-2.4393 10.699-5.3281 14.55-6.1514 4.2088-0.89967 9.0617-5.4831 14.293-9.0494-2.5918-3.6581-6.5535-14.378-7.6557-16.911-8.8613-20.366-11.945-51.252-1.9262-73.012 5.6842-2.1871 15.758-6.2327 24.95-7.2178 10.294 0.66241 26.319 0.17509 27.741-2.0342z" stroke="#000" stroke-width=".99834px"/>
  <path d="m443.18 102.86c-11.737-4.6681-19.061-16.729-24.795-18.918-4.3294-1.653-14.749 4.7195-9.9181 9.5507 0.0385 0.0385 1.4481-0.75589 1.8367-0.36734 0.41481 0.41481-0.81988 1.1872-0.91834 1.2857-0.42075 0.42074-0.0736 3.0488 0.55101 4.2244-0.0573 3.9834-0.14726 8.8525 2.5714 11.571 0.87562 0.87562 2.4715 1.1858 3.306 2.0203 0.71135 0.71135 5.8948 5.7797 6.9794 3.857 2.6148-4.6351 1.347-7.1937 7.3467-8.2651 4.4538-0.79531 7.2952-2.7696 13.04-4.959z" fill="#e6e6e6" stroke="#000" stroke-width="1px"/>
  <path d="m437.86 103.96c0.12244-0.2449 0.31364-0.4662 0.36733-0.73468 0.12189-0.60945-2.3796-0.17964-2.755-0.36733-2.1493-1.0746-4.4759-0.40126-6.612-1.4694-2.3286-1.1643-4.0865-2.0203-7.3467-2.0203-2.4 0-6.5344 1.1797-8.265-0.55101-0.25639-0.25638-1.4693 0.19584-1.4693 0 0-0.88534-1.8367-1.081-1.8367-2.3877 0-0.0796-0.22653-0.36734-0.18367-0.36734 0.24489 0 0 0.48979 0 0.73468 0 0.73901 0.18367 1.5794 0.18367 2.204 0 0.60102 0.89412 2.7792 0.36733 3.306-1.1687 1.1687-1.3563 4.7047-0.18367 5.8774 0.85184 0.85184 2.8272 0.99049 3.857 2.0203 0.16392 0.16392 9.536 0.19838 9.5507 0.18367 0.86544-0.86543 1.4956-1.5393 2.9387-2.0203 0.72992-0.24331 1.8809-0.2279 2.3877-0.73468 1.1395-1.1395 3.6037-0.8487 4.7754-2.0203 0.42856-0.42856 1.9591 0.24489 2.3877-0.18367 1.3093-1.3093 1.0382-0.83057 1.8367-1.4693z" fill="url(#dq)" filter="url(#dx)"/>
  <path d="m447.04 102.12c-2.3631 0.46518-2.7102-1.4246-4.0407-2.755-0.74869-0.74869 0.57952-1.8652 0.73468-2.0204 1.1507-1.1507 7.0745-0.72811 5.3264-4.2244-0.37805-0.75609-0.84801-3.052-1.4694-3.6734-0.87801-0.87801-4.6051-4.762-4.0407-5.3264 0.26333-0.26333 1.4744 0.18367 1.102 0.18367h-0.36734c1.1375 0 4.8962-0.0628 5.1427 0.18367 1.7568 1.7568 3.8206 2.3513 5.3264 3.857 0.2919 0.29191 4.3395 1.0335 4.5917 1.2857 2.4356 1.3534 6.3904 3.3566 8.4487 4.5917 1.8283 0.97116 7.1061 1.9399 7.5304 2.3877 0.47993 0.50649 1.486 1.294 1.8367 1.4693 0.24618 0.12309 0.53807 1.2728 1.102 1.8367 0.94994 0.94994-5.9934 1.9527-6.2447 2.204-2.8823 0.53325-4.9955 0.53169-8.265 0.73467-1.7648 0.13003-2.8429 0.0701-4.408-0.36734-2.6053 0.21764-11.223 0.28223-12.306-0.36733z" fill="#666" stroke="#000" stroke-width="1px"/>
  <path d="m476.43 100.84c-3.5223-1.3154-8.1197-2.204-12.306-2.204-2.3624 0-5.0944-0.18367-7.714-0.18367-2.258 0-3.9589-0.18367-6.2447-0.18367-0.99276 0-6.9395-0.95824-7.163-0.73467-0.53547 0.53547 1.4854 1.6691 1.653 1.8367 0.80733 0.80733 1.0177 2.3034 1.8367 3.1223 0.73133 0.73134 7.7424 0.55101 10.102 0.55101 5.3782 0 17.434 1.7995 19.836-2.204z" fill="#1a1a1a" stroke="#000" stroke-width="1px"/>
  <path d="m464.86 96.063c-0.51869-1.6853-3.8634-4.0407-7.8977-4.0407-0.72081 0-2.1423 1.1637-2.0204 1.2857 0.7268 0.7268 8.1034 2.3014 9.9181 2.755z"/>
  <g transform="translate(-4.4161 -33.682)" stroke="#fbfefc">
   <path transform="matrix(.98108 0 0 .88561 36.224 .90875)" d="m409.4 131.58c0 1.7244-1.9324 3.1224-4.3162 3.1224s-4.3162-1.3979-4.3162-3.1224c0-1.7244 1.9324-3.1224 4.3162-3.1224s4.3162 1.3979 4.3162 3.1224z" stroke-width=".51495"/>
   <path d="m435.29 116.61c0 0.35503-0.2467 0.64283-0.55101 0.64283s-0.551-0.2878-0.551-0.64283 0.24669-0.64284 0.551-0.64284 0.55101 0.28781 0.55101 0.64284z" fill="#fbfcfa" filter="url(#dy)" stroke-linecap="round" stroke-width=".48"/>
  </g>
  <path d="m436.83 203.38c-3.3125-12.309-12.248-21.733-12.248-35.942 0-1.8743-0.044-5.0031-1.102-6.061-0.61491-0.6149 0.40264-3.0517 0-3.857-0.41426-0.82852-0.58945-1.7299-0.91834-2.3877-0.38984-0.77967-1.142-2.184-2.204-1.653-4.3313 2.1656-1.9521 7.5515-0.73467 11.204 0.60593 1.8178 0.27002 4.0188 0.73467 5.8774 0.90794 3.6318 2.0204 10.207 2.0204 13.959 0 1.4755 0.52922 6.8393 0 7.8977-0.47073 0.94146-0.0312 1.7466-0.36734 2.755-1.3432 4.0296-1.4693 8.3959-1.4693 12.857 0 0.63351-0.61007 4.2834-0.73467 4.408-5e-3 5e-3 -0.85174 0.76798-0.55101 0.91834 2.527 1.2635 6.5913-3.1016 7.7141-4.2244 0.44644-0.44645 1.1194-0.65151 1.653-0.91834 0.85381-0.42691 4.105-2.624 4.718-3.237 0.78972-0.78973 2.3127-1.1249 3.4897-1.5957z" fill="#ccc" fill-opacity=".44444" filter="url(#dz)"/>
  <path d="m434.76 198.93c4.576 3.4103 4.933 9.0797 8.6125 12.759 1.0873 1.0873 1.1864 3.7383 2.5518 5.1037 0.99211 0.99211 2.5634 6.8807 2.8268 8.4761 0.6752 4.0892 0.49051 7.1917 0.044 10.982-0.23376 4.9399-1.1368 8.4098-1.9139 11.164-1.8867 4.7423-3.3116 9.2765-7.2002 13.351-2.1939 3.6106-4.9912 6.5441-6.835 9.9346-2.6775 5.355-7.1388 13.518-11.164 17.544-1.1233 1.1232-2.7968 3.7978-4.0588 5.0597-5.4968 5.4968-9.0118 9.0376-17.177 14.946-3.7979 3.4568-11.196 7.8448-13.215 9.6596-5.8442 5.8442-18.019 9.7445-26.02 11.846-11.9 1.8685-21.62 2.6625-31.077 1.2319-1.5188-0.50626-7.0341-4.4492-8.9314-2.5518-1.8387 1.8387 0.29819 4.8512-1.1395 7.0616-4.3416 6.6748-1.672 15.135-1.5069 22.786 0.30644 3.9582 1.8096 10.283 4.6043 13.078 1.0899 1.0899 1.8278 3.9221 2.5078 4.6021 2.5959 2.5959 7.5751 1.5547 10.845 3.1898 11.347 6.4972 14.288 1.8479 4.4657 7.9745-0.62326 0.62326-4.4846 4.9536-4.7847 5.1037-11.193 5.5965-19.929-6.532-24.561-11.164-0.9748-0.9748-7.953-1.8709-8.6125-3.1898-0.92941-1.8588 3.1926-5.3777 3.8222-7.2664 0.8001-2.4003 1.9847-6.6372 2.2329-9.5694 0.91619-3.1038 0.69651-9.4154 0.64348-14.105 0-2.6381-0.70688-19.527-0.95694-19.777-1.183-1.183-5.7731 0.78172-7.3366 0-1.0007-0.50036-8.5595-0.90398-8.6125-0.95694-3.7402-0.53131-10.686-1.9021-16.268-2.8708-10.183-2.1998-18.053-3.2995-31.26-7.6555-9.5855-2.7656-18.626-6.6078-26.794-8.2935-5.1398-1.383-11.25-2.2329-15.63-2.2329-3.7157 0-11.507 1.4964-14.673 2.5518-3.7046 1.2349-6.7659 0.19316-10.207 1.9139-2.5749 1.2874-5.7008 1.5745-9.8884 2.5518-2.539 0.59259-4.5686 1.2039-7.6555 2.2329-2.6637 0.8879-4.8351 1.6453-6.3796 3.1898-0.71645 0.71645-3.4974-0.33033-4.1467 0.31898-0.27734 0.27734-1.1383 0.95694-1.5949 0.95694-1.1379 0 1.999-2.6369 3.8278-4.4657 0.57249-0.5725 0.89699-1.475 1.2759-2.2329 0.4763-0.95259 6.9281-6.6092 7.9745-7.6555 0.3565-0.35649 1.8764-0.28147 2.2329-0.63796 0.34087-0.34087-0.45346-0.63796 0.31898-0.63796 0.57992 0 6.5969-2.0156 6.0606-2.5518-1.7602-1.7602-8.4308 1.4132-9.2504 2.2329-0.81427 0.81427-4.7527-0.17549-5.7416 0.31898-1.087 0.54352-2.8156 1.5949-3.8278 1.5949-0.99336 0-3.9358 0.84896-4.7847 0-0.71672-0.71672 0.75369-2.5518 1.2759-2.5518 0.47141 0 4.159-0.65019 4.4657-0.95694 0.0675-0.0675-3.239-0.50307-3.5088-0.63796-0.35306-0.17653-0.62106-2.5687-0.31898-2.8708 0.29753-0.29753 5.5235-0.73885 6.0606-1.2759 0.5848-0.58479 0.69112-1.6481 1.2759-2.2329 0.15949-0.15949 0.79745 0.15949 0.95694 0 1.6443-1.6443 4.0082-3.0513 5.7416-4.7847 0.49286-0.49286 1.8558 0.0581 2.2329-0.31898 2.1333-2.1333 5.5242-2.3344 7.6555-4.4657 0.26582-0.26582 1.3291 0.26581 1.5949 0 2.194-2.194 7.8921-3.4264 8.9314-4.4657 2.6968-2.6968 5.1051-6.3811 7.9745-9.2504 0.20016-0.20015 1.3483-0.0723 1.5949-0.31898 1.0926-1.0926 2.7275-2.6397 4.4657-3.5088 1.336-0.668 3.2242-0.67237 4.1467-1.5949 3.0451-3.0451 9.1756-4.9068 12.759-6.6986 7.3569-3.7867 20.935-9.8704 29.665-13.078 0.27616-0.27616 1.2238 0.18555 1.5949 0 0.30709-0.15355 4.5271-3.5702 4.7847-3.8278 1.2085-1.2085 7.8848-2.4621 9.2504-3.8278 2.6521-2.6521 7.2592-2.7934 9.5694-5.1037 0.37424-0.37423 2.1508 0.082 2.5518-0.31898 1.7816-1.7816 19.501-8.9457 23.286-10.207 4.2953-1.1097 8.4358-3.0549 12.121-4.7847 3.9166-0.84185 6.6258-2.4403 9.8884-3.1898 5.3113-1.2202 9.8017-1.566 12.759-2.5518 6.9987-2.3329 22.281-1.5949 29.984-1.5949 1.8713 0 8.4008-0.10584 13.078 0 4.3521 0.0985 11.278 0.95694 21.691 2.5518 1.3 0.19912 10.433 2.9638 11.164 2.2329 1.9221-1.9221 14.164-4.5948 14.992-5.4227 1.2426-1.2426 3.9452-1.3934 5.1037-2.5518 1.1137-1.1137 2.7536-2.9553 3.5088-4.4657 0.4641-0.92821 4.3866-2.4885 6.0606-3.8278z" fill="#f2f2f2" stroke="#000" stroke-width="1px"/>
  <path d="m304.33 327.2c2.1375-0.3155 17.866 0.15472 18.259 0.54777 0.32806 0.32806 4.017 0.19511 4.017 0.91295 0 0.29307-1.0395-0.88494-2.1911-1.4607-0.77456-0.38728-2.9642-0.40793-3.6518-1.0955-0.29049-0.29048-6.2609-1.6609-7.3036-2.0085-0.63228-0.21076-1.4173 0.113-2.0085-0.18259-2.4878-1.2439-7.0666-1.4063-8.7643-3.104-0.53993-0.53993-2.2651-0.074-2.9214-0.73035-0.65346-0.65346-1.6302-0.89984-2.5563-1.8259-0.25389-0.2539-0.95303-0.0401-1.2781-0.36518-0.32469-0.32469-0.66224-1.7918-1.0955-2.0085-0.24882-0.12441-0.72627 1.0063-1.6433 0.54777-0.42203-0.21101-0.45514-1.0029-0.73036-1.2781-1.0518-1.0518-3.4748-0.91859-4.5647-2.0085-0.14781-0.14782 0-1.2285 0-1.4607 0-0.14297-0.0911-0.82184 0-0.91294 0.75677-0.75678 1.0376-2.8636 1.6433-3.4692 0.19637-0.19637 1.6536-1.1817 1.0955-1.4607-1.2406-0.6203-8.5402 0.16185-9.6772 0.73035-2.215 1.1075-10.886-1.1651-12.964 0.91295-0.83126 0.83127-4.2121-0.5415-5.2951 0-2.5904 1.2952-11.052 0.2363-13.146-0.18259-0.31493-0.063-1.9325 0.25859-2.1911 0-0.45157-0.45157-2.2785-1.0878-2.5563-1.6433-0.0262-0.0524-2.2846-0.089-2.3737 0-0.55708 0.55708-1.4525-0.556-2.1911 0.18259-1.6408 1.6408-12.11 0.73035-15.155 0.73035-1.4793 0-4.3998-0.0176-5.2951-0.91294-0.16645-0.16645-1.3818 0-1.6433 0-1.2215 0-6.3057-0.0849-6.7558 0.36517-0.4878 0.4878 4.1621 1.0581 4.1996 1.0955 0.61228 0.61228 8.2705 1.6433 9.8598 1.6433 3.1733 0 6.31 2.1642 9.1295 3.104 2.9521 0.98404 8.5576 1.9844 10.225 3.6518 1.3807 1.3807 7.7539 1.5033 9.8598 2.5562 0.29214 0.14607 0.8034-0.14607 1.0955 0 3.333 1.6665 8.7442 2.8251 12.781 3.8344 1.9115 0.47787 4.3288-0.30058 6.0255 0.54777 1.6678 0.83391 3.7405 0.77473 5.4777 1.6433 0.5356 0.2678 1.4729-0.2678 2.0085 0 3.6797 1.8398 17.289 3.104 22.276 3.104z" fill="#fff" stroke="#000" stroke-width="1px"/>
  <path d="m307.41 306.69c1.0434-0.34707 0.89854-0.35477 1.2019-0.96154 0.28628-0.57255 1.2537-0.29216 1.6827-0.72115 0.79079-0.79079-4.0865-1.622-4.0865-4.0865 0-2.2145-2.4729-5.0481-1.2019-5.0481 0.65167 0-3.0782 0.19362-4.3269 1.4423-1.1046 1.1046 0.0558 4.4192-1.6827 5.2885-3.3063 1.6531-7.1542-0.29769-10.337 2.8846-0.5374 0.5374 0.40098 1.3625 0.48077 1.4423 0.52378 0.52378 0.64248 1.8444 1.2019 2.4038 3.6955 3.6955 14.561-0.63883 17.067-2.6442z" fill="#808080" stroke="#000" stroke-width="1px"/>
  <path d="m305.24 327.39c2.1375-0.3155 17.866 0.15472 18.259 0.54777 0.32806 0.32806 4.017 0.19511 4.017 0.91295 0 0.29307-1.0395-0.88494-2.1911-1.4607-0.77456-0.38728-2.9642-0.40793-3.6518-1.0955-0.29049-0.29048-6.2609-1.6609-7.3036-2.0085-0.63228-0.21076-1.4173 0.113-2.0085-0.18259-2.4878-1.2439-7.0666-1.4063-8.7643-3.104-0.53993-0.53993-2.2651-0.074-2.9214-0.73035-0.65346-0.65346-1.6302-0.89984-2.5563-1.8259-0.25389-0.2539-0.95303-0.0401-1.2781-0.36518-0.32469-0.32469-0.66224-1.7918-1.0955-2.0085-0.24882-0.12441-0.72627 1.0063-1.6433 0.54777-0.42203-0.21101-0.45514-1.0029-0.73036-1.2781-1.0518-1.0518-3.4748-0.91859-4.5647-2.0085-0.14781-0.14782 0-1.2285 0-1.4607 0-0.14297-0.0911-0.82184 0-0.91294 0.75677-0.75678 1.0376-2.8636 1.6433-3.4692 0.19637-0.19637 1.6536-1.1817 1.0955-1.4607-1.2406-0.6203-8.9234-0.41291-10.06 0.15559-2.215 1.1075-10.79-0.39873-12.581 1.4877-0.80934 0.85263-4.2121-0.5415-5.2951 0-2.5904 1.2952-11.052 0.2363-13.146-0.18259-0.31493-0.063-1.9325 0.25859-2.1911 0-0.45157-0.45157-2.2785-1.0878-2.5563-1.6433-0.0262-0.0524-2.2846-0.089-2.3737 0-0.55708 0.55708-1.4525-0.556-2.1911 0.18259-1.6408 1.6408-12.11 0.73035-15.155 0.73035-1.4793 0-4.3998-0.0176-5.2951-0.91294-0.16645-0.16645-1.3818 0-1.6433 0-1.2215 0-6.3057-0.0849-6.7558 0.36517-0.4878 0.4878 4.1621 1.0581 4.1996 1.0955 0.61228 0.61228 8.2705 1.6433 9.8598 1.6433 3.1733 0 6.31 2.1642 9.1295 3.104 2.9521 0.98404 8.5576 1.9844 10.225 3.6518 1.3807 1.3807 7.7539 1.5033 9.8598 2.5562 0.29214 0.14607 0.8034-0.14607 1.0955 0 3.333 1.6665 8.7442 2.8251 12.781 3.8344 1.9115 0.47787 4.3288-0.30058 6.0255 0.54777 1.6678 0.83391 3.7405 0.77473 5.4777 1.6433 0.5356 0.2678 1.4729-0.2678 2.0085 0 3.6797 1.8398 17.289 3.104 22.276 3.104z" fill="#333" fill-opacity=".46032"/>
  <path d="m435.79 198.84c2.9632 6.018 7.7486 13.306 11.503 20.815 0.81173 1.6235 0.23328 4.0289 0.54776 5.8429 2.8797 16.61-7.7462 30.796-12.798 40.9-12.385 24.77-44.18 59.978-81.053 50.76-8.817-2.2042-15.298-1.5642-18.989-8.9469-1.9908-3.9815 1.3207-13.779 2.9214-16.981 2.3857-4.7714 7.9877-28.552 11.138-30.127 3.8596-1.9298 8.0802-4.4584 12.781-6.0255 3.4753-1.1584 7.8317 0.83148 10.955-0.73036 1.7365-0.86827 3.2894-3.1054 4.3822-3.6518 2.4546-1.2273 9.6196 11.388 11.138 14.425 0.15109 0.30218 0.22363 2.0085 0.54776 2.0085 1.5863 0 1.2781-3.9604 1.2781-5.4777 0-0.23925 3.9624 1.7168 2.3737-1.4607-0.11164-0.22328-1.519-4.7473-0.91295-4.7473 2.7157 0 5.8429 9.8495 5.8429 7.8514 0-0.97389-0.80052-8.6519-2.0085-9.8598-0.95557-0.95557-0.54777-5.3684-0.54777-4.017 0 3.8544 4.549 10.757 6.3906 12.599 0.73667 0.73667-1.407-3.104-0.36518-3.104 0.11768 0 1.1347 3.7235 2.3737 3.104 0.89938-0.44969-1.0141-3.5703-1.0955-3.6518-1e-3 -1e-3 -0.34558-0.50857-0.36518-0.54777-0.82064-1.6413-0.54777-7.3127-0.54777-5.4777 0 2.7076 5.2951 5.8854 5.2951 8.034v-1.8259c0-2.2762-1.6433-4.6808-1.6433-7.4862 0-0.53194-5.3418-13.24-6.208-14.972-0.42255-0.8451-0.73035-3.6837-0.73035-2.7388 0 0.66116 3.2316 3.8982 3.8344 4.1996 0.14846 0.0742 1.1519 1.9521 1.2781 1.8259 0.3306-0.3306-1.793-3.6937-2.0085-4.017-1.633-2.4495-0.94177-6.2657-2.3737-9.1295-1.5041-3.0082-2.9568-11.489-2.8492-11.596 1.3415-1.3415 7.4844 1.8839 10.701 0.2758 11.131-5.5657 15.746-4.9733 24.102-13.329 1.6323-1.6323 3.6964-0.61463 5.1125-2.7388z" fill="#f9f9f9"/>
  <path d="m377.59 249.96c-9.2202 5.1022-20.753 4.0786-28.449 11.822-5.078 5.1089-4.2343 12.461-6.3908 16.8-1.74 3.5011-9.3264 22.716-7.8339 25.719 1.6505 3.321-47.119-0.65745-44.942 2.3179 11.855 16.203 32.78 23.441 52.776 23.533 11.88 0.055 11.179 0.50101 16.492-0.20616 7.027-0.93515 11.336-2.4134 18.142-5.5725 5.3439-2.4805 20.622-14.064 21.852-15.302 3.889-2.7497 9.2336-6.3452 12.369-9.5409 4.9151-4.945 8.2699-8.3202 10.926-12.237 1.9354-2.8539 3.8667-4.5124 6.1847-6.8445 1.4194-1.4281 3.8287-7.4966 4.7416-9.3334 0.18801-0.37831-0.61234-1.3954-1.2369-1.8667-3.2837-2.4778-5.4445-3.361-8.2462-4.7704-3.0206-1.5195-9.5223-5.6789-10.72-8.089-0.30451-0.61273-3.8314-5.1852-3.7108-5.1852 0.58713 0 0.61846 1.0686 0.61846 1.6593 0 2.3604 6.2344 10.318 8.8647 11.2 0.41743 0.14 1.0308 0.38695 1.0308 0.82965 0 1.1339-1.7422-1.4451-2.68-2.0741-1.6874-1.1318-3.9506-3.145-5.36-4.563-0.39394-0.39633-4.1675-5.3034-4.3293-4.9778-1.7621 3.5456 9.9942 15.456 9.8955 15.556-1.5772 1.5868-12.164-9.958-12.575-10.785-1.0637-2.1403-22.971-4.7327-27.419-8.089z" fill="url(#dr)"/>
  <path d="m214.82 261.18c-2.9268 1.0581-6.3994 2.0937-8.9412 4-2.8059 2.1044-5.6838 2.8603-8.2353 5.4118-3.3583 3.3583-7.9134 4.8545-11.059 8-1.4714 1.4714 10.163 0.98854 11.294 0.70588 3.2638-0.81596 5.5756-4.4349 8.4706-5.8824 4.0772-2.0386 13.773-6.9326 8.4706-12.235z" fill="#c8b7b7" stroke="#000" stroke-width="1px"/>
  <path d="m252.06 301.19c-9.2372-7.0056-27.582-10.118-37.162-0.53858-0.24089 0.24088-3.7072 1.6786-2.1543 3.2315 8.1329 8.1329 30.141-0.85787 39.316-2.6929z" fill="#b3b3b3"/>
  <path d="m148.21 319.17c5.5144-1.2184 15.279-6.0817 27.137-8.0489 3.756-2.6561 21.06-4.6903 33.118-6.0105 2.989 0.0442 13.086 0.6692 14.425 1e-5 0.65015-0.32508-0.63972-2.5549-0.18259-3.4692 0.64527-1.2905 3.8344-3.4513 3.8344-2.0085 0 0.1948 0.0545-1.3518-0.18259-1.8259-0.65567-1.3113-2.175-1.0955-3.8344-1.0955-1.9765 0-5.0808-0.61918-6.9384 0-0.65834 0.21945-2.0085 1.2417-2.0085 0.54777 0-0.93184 14.637-4.2589 16.616-8.2165 2.6712-5.3423 15.587-4.4489 19.354-8.2165 0.51-0.51001-8.8776-13.26-9.8598-14.242-3.0072-3.0072 5.8105-8.0016 7.3036-9.4947 0.34581-0.3458-5.6638-4.9334-4.5647-3.8344 0.6563 0.6563-8.1293 3.1517-8.7643 3.4692-2.7446 1.3723-9.6983 6.7558-13.694 6.7558-3.5129 0-18.86 9.731-20.633 11.503-1.8241 1.8241-2.815-1.0194-4.1996 0.36518-0.84325 0.84325-5.2076 4.3822-6.208 4.3822-0.89863 0-2.3737 2.1768-2.3737 1.2781 0-1.2839 1.6491-3.8344 0.36518-3.8344-8.146 2.5562-16.197 7.181-22.276 12.416-2.0843-0.28937-12.598 7.8511-16.981 8.2165 0.43217 1.6074 2.0386 2.8913 2.0085 2.9214-0.33614 0.33615-6.1422 3.3524-3.2866 4.3822 2.2382 0.80709 21.943-3.1366 23.006-4.1996 1.4467-1.4467-4.2136 0.92697-5.6603 2.3737-1.4825 1.4825-5.7634 3.0245-7.3036 4.5647-4.9006 4.9006-8.9125 9.6967-8.2165 11.321z" stroke="#000" stroke-width="1px"/>
  <path d="m250.65 278.64c-6.1547 3.5945-25.101 7.5724-31.405 13.877-2.168 2.168-6.3584 1.7936-8.2165 3.6518-0.38493 0.38494-1.4607 1.2747-1.4607 0.73036 0-0.8093 23.71-15.155 27.206-15.155 2.2206 0 7.9052-4.0709 9.3121-5.4777 0.12169-0.12169 2.0472-0.87426 1.8259-1.0955-1.3162-1.3162-14.657 6.5732-16.798 6.5732-7.0418 0-35.771 25.396-40.717 20.45-1.0129-1.0129 5.0158-5.5636 5.6603-6.208 2.8676-2.8676 24.962-16.068 30.492-16.068 1.113 0 7.8082-3.426 8.7643-4.3822 0.31485-0.31484 5.5468-3.0694 5.1125-3.2866-5.0892-2.5446-46.486 21.653-49.847 25.015-1.468 1.468-7.8681 6.5565-10.408 4.017-0.26642-0.26643-1.8857-2.8616-1.0955-3.6518 1.4298-1.4298 3.4658 1.2815 5.2951-0.54777 11.23-11.23 28.151-17.179 42.726-24.467 1.0663-0.53315 11.321-3.9978 11.321-5.1125 0-0.86655-15.787 3.6027-17.711 4.5647-9.9814 4.9907-25.795 11.188-33.596 18.989-0.78107 0.78107-6.9368 5.8461-8.2165 3.2866-1.5398-3.0795 4.8164-4.999 6.0254-6.208 6.0924-6.0924 16.716-11.354 25.928-14.425 2.8112-0.93708 7.9758-1.9503 9.6772-3.6518 1.9209-1.9209 12.136-5.4777 15.338-5.4777 1.9586 0 4.2327-2.2242 5.1125-3.104 0.35489-0.35489 1.9626-0.36518 1.4607-0.36518-1.9169 0-23.603 6.4392-25.563 8.3991-1.6222 1.6222-8.9098 5.8429-11.321 5.8429-0.14042 0-2.9214 1.2705-2.9214 0.91294 0-0.38467 9.1013-5.2951 9.6772-5.2951 9.3184 0 31.709-18.655 37.613-15.703 1.3209 0.66045 5.9004-2.8639 7.4862-1.2781 1.8116 1.8116-14.78 7.476-16.433 9.1295-3.2094 3.2094 2.7834 7.4862 6.3906 7.4862 0.23141 0-0.97402 3.043 0.91294 4.9299 1.1321 1.1321 6.3484-0.73035 4.7473-0.73035-2.2798 0-3.5732 2.0351-2.3737 3.8344z" fill="#808080"/>
  <path d="m291.55 306.39c-0.6595 0.41364-0.2652 0.26521-1.2781 1.2781-1.5222 1.5222 5.0961 2.4568 5.6603 2.7388 1.6563 0.82816 10.93-3.9381 11.868-3.4692 0.65293 0.32647 4.635 9.0874 5.2951 10.408 0.35139 0.70278-0.53273 2.3887-0.18259 2.7388 0.21518 0.21518 0.73036 0.24345 0.73036 0.54777 0 0.29883-0.89262-0.7202-0.91295-0.73036-3.6908-1.8454-3.4994-5.6905-5.8429-8.034-0.37357-0.37357-0.32244-1.7832-0.73036-2.1911-0.18259-0.18259-0.80599-0.54777-0.54776-0.54777 0.91294 0 0 1.8259 0 2.7388 0 0.33616 1.2915 3.4826 1.6433 3.8344 1.0287 1.0287 1.2794 2.5575 2.3737 3.6518 0.27557 0.27557 1.1201 0.91295 0.73036 0.91295-1.5816 0-4.7607-2.9348-5.4777-3.6518-0.24685-0.24685-1.5549-3.375-1.8259-3.104-0.92815 0.92815 1.9991 4.5647 1.6433 4.5647-1.562 0-2.3667-3.9222-3.6518-4.5647-0.78936-0.39468-1.4607-1.9938-1.4607-1.8259 0 4.0714 6.9384 8.0521 6.9384 9.3121 0 0.043-0.46908-0.18258-0.54777-0.18258-0.76064 0-2.5949-0.7497-3.2866-1.0955-1.2986-0.64929-2.8007-0.42704-3.8344-1.4607-0.35921-0.35921-0.2922-1.0226-0.73036-1.4607-0.0755-0.0755-0.91295-0.59598-0.91295-0.73035 0-0.74294 1.3006 0.75279 1.8259 1.2781 1.2911 1.2911 3.4002 1.3917 4.7473 2.7388 0.38396 0.38396 12.803 4.36 12.234 4.9299-0.76719 0.76719-5.1221-0.18737-5.8429-0.54777-0.67775-0.33888-1.5701 0.12789-2.1911-0.18259-4.2945-2.1472-9.2041-2.4483-12.051-5.2951-0.50691-0.50691-0.12239-1.5831-0.54777-2.0085-0.32776-0.32776-0.81461 0.54777-1.2781 0.54777-0.18842 0-2.2169-1.8517-2.3737-2.0085-0.93085-0.93086-3.1784-0.62212-4.1996-1.6433-1.3937-1.3937 3.1601-6.415 4.017-7.4862z" fill="#1a1a1a"/>
  <path d="m287.9 305.11c4.1177 0.34408 5.2381-2.0085 9.3121-2.0085 1.0061 0 3.3657 0.46871 3.8344 0 0.37365-0.37364-0.36518-2.5918-0.36518-3.2866 0-0.62069 0.80407-1.387 0.36518-1.8259-0.56949-0.5695-1.9033 1.0182-2.5562 0.36518-0.93324-0.93324-2.5971-1.1364-3.4692-2.0085-0.40984-0.40983-2.017 0.26963-2.5563 0-1.7299-0.86497-3.3724-1.729-4.3822-2.7388-0.51408-0.51408-0.57476-2.2181-1.0955-2.7388-1.4298-1.4298-3.6252 1.2001-5.6603 0.18259-1.3865-0.69326-2.6103-1.1496-3.4692-2.0085-0.59092-0.59092-2.6232 0.29825-3.2866-0.36518-0.42381-0.42381-3.3328-3.1803-3.6518-3.2866-1.5966-0.5322-6.9175-0.70942-7.3036-1.0955-0.67544-0.67544-2.7187-0.52764-3.4692-1.2781-0.26636-0.26636-10.306-3.5202-11.503-2.9214-3.2077 1.6038-15.134 4.5442-16.616 6.0254-0.83125 0.83126-1.9696 2.5174-2.7388 3.2866-2.3293 2.3293-9.7094 3.6839-12.234 6.208-0.34117 0.34118 6.7242 1.6117 6.7558 1.6433 0.33926 0.33926 0.71759-0.36518 2.1911-0.36518 2.0049 0 4.7737 0.18259 6.208 0.18259 0.66866 0 7.3775 3.3953 8.9469 1.8259 1.1194-1.1194 4.0695-0.78287 5.1125-1.8259 0.2047-0.20469 1.1724-0.0384 1.4607-0.18259 0.24345-0.12172 0.73036-0.63737 0.73036-0.36518 0 0.43492-4.0741 1.4607-4.5647 1.4607-1.0532 0-18.786 2.6374-18.989 2.7388-0.55997 0.27999-3.3749 0.8247-2.3737 1.8259 0.27389 0.27388 0.27389 0.82165 0.54777 1.0955 0.60834 0.60834 5.2844 0.36518 6.208 0.36518 0.78489 0 4.0411 0.18259 2.0085 0.18259-0.94399 0-3.8699-0.25612-4.7473 0.18259-0.34191 0.17095-1.4219 0.32632-1.6433 0.54777-0.0403 0.0403 0.0309 0.73035 0 0.73035-0.12422 0 2.5077-0.0486 2.7388 0.18259 1.0803 1.0803 5.9184 0.36518 7.6688 0.36518 2.6227 0 8.0899-1.524 9.6772-0.73036 1.3726 0.68631 3.1042 1.4608 4.7473 2.0085 0.78037 0.26013 2.2526-0.12107 2.7388 0.36518 0.37045 0.37045 3.0697 0 3.6518 0 2.7852 0 17.983-0.45396 19.172-1.6433 0.96943-0.96943 10.196 0.346 12.599-1.0955z" fill="#b3b3b3"/>
  <path d="m287.53 305.11c4.1177 0.34408 5.2381-2.0085 9.3121-2.0085 1.0061 0 3.3657 0.46871 3.8344 0 0.37365-0.37364-0.36518-2.5918-0.36518-3.2866 0-0.62069 0.80407-1.387 0.36518-1.8259-0.56949-0.5695-1.9033 1.0182-2.5562 0.36518-0.93324-0.93324-2.5971-1.1364-3.4692-2.0085-0.40984-0.40983-2.017 0.26963-2.5563 0-1.7299-0.86497-3.3724-1.729-4.3822-2.7388-0.51408-0.51408-0.57476-2.2181-1.0955-2.7388-1.4298-1.4298-3.6252 1.2001-5.6603 0.18259-1.3865-0.69326-2.6103-1.1496-3.4692-2.0085-0.59092-0.59092-2.6232 0.29825-3.2866-0.36518-0.42381-0.42381-3.3328-3.1803-3.6518-3.2866-1.5966-0.5322-6.9175-0.70942-7.3036-1.0955-0.67544-0.67544-2.7187-0.52764-3.4692-1.2781-0.26636-0.26636-10.306-3.5202-11.503-2.9214-3.2077 1.6038-15.134 4.5442-16.616 6.0254-0.83125 0.83126-1.9696 2.5174-2.7388 3.2866-2.3293 2.3293-9.7094 3.6839-12.234 6.208-0.34117 0.34118 6.7242 1.6117 6.7558 1.6433 0.33926 0.33926 0.71759-0.36518 2.1911-0.36518 2.0049 0 4.7737 0.18259 6.208 0.18259 0.66866 0 7.3775 3.3953 8.9469 1.8259 1.1194-1.1194 4.0695-0.78287 5.1125-1.8259 0.2047-0.20469 1.1724-0.0384 1.4607-0.18259 0.24345-0.12172 0.73036-0.63737 0.73036-0.36518 0 0.43492-4.0741 1.4607-4.5647 1.4607-1.0532 0-18.786 2.6374-18.989 2.7388-0.55997 0.27999-3.3749 0.8247-2.3737 1.8259 0.27389 0.27388 0.27389 0.82165 0.54777 1.0955 0.60834 0.60834 5.2844 0.36518 6.208 0.36518 0.78489 0 4.0411 0.18259 2.0085 0.18259-0.94399 0-3.8699-0.25612-4.7473 0.18259-0.34191 0.17095-1.4219 0.32632-1.6433 0.54777-0.0403 0.0403 0.0309 0.73035 0 0.73035-0.12422 0 2.5077-0.0486 2.7388 0.18259 1.0803 1.0803 5.9184 0.36518 7.6688 0.36518 2.6227 0 8.0899-1.524 9.6772-0.73036 1.3726 0.68631 3.1042 1.4608 4.7473 2.0085 0.78037 0.26013 2.2526-0.12107 2.7388 0.36518 0.37045 0.37045 3.0697 0 3.6518 0 2.7852 0 17.983-0.45396 19.172-1.6433 0.96943-0.96943 10.196 0.346 12.599-1.0955z" fill="url(#ds)"/>
  <path d="m233.85 301.64c6.0886 0.83849 11.028-2.0085 15.703-3.4692 4.1741-1.3044 9.7506-2.2644 13.512-4.017 3.6571-1.7041 8.8486-2.1068 14.425-4.1996-6.114 0.82436-19.999 5.1611-24.832 6.5732-7.0593 2.0627-14.474 2.9367-18.807 5.1125z" fill="#0d070b" filter="url(#eb)" stroke="#000" stroke-width=".6"/>
  <path d="m273.47 287.77c-13.397 2.8478-29.605 6.7134-46.013 8.7643" fill="none" filter="url(#ea)" stroke="#000" stroke-width=".4"/>
  <path d="m293.37 296.71c-2.0007 0.86958-6.9952 1.7347-10.59 2.5563-10.718 2.4491-24.871 4.7522-36.518 6.208" fill="none" filter="url(#ec)" stroke="#000" stroke-width=".1"/>
  <path d="m304.69 296.71c-0.3329 0.55013-6.1517 1.6997-6.208 1.6433-2.2593-2.2593-6.299-1.5516-8.2165-3.4692-0.27565-0.27565-1.1726-0.25965-1.4607-0.54777-0.86039-0.86039-0.83703-3.0661-2.3737-3.8344-1.2744-0.6372-2.1785 0.91294-2.7388 0.91294-2.8789 0-4.3748-1.0919-6.5732-2.1911-0.75703-0.37852-2.2582 0.11549-2.5562-0.18259-1.195-1.195-1.1987-2.6078-2.9214-3.4692-1.0178-0.50892-3.1964 0.45542-4.017-0.36518-1.3429-1.3429-6.9491-1.74-8.9469-2.7388-0.72791-0.36395-1.709 0.14973-2.3737-0.18259-1.3815-0.69076-2.3839-1.1007-3.8344-1.8259-0.44164-0.22082-1.1362-0.0407-1.4607-0.36518-0.8958-0.89579-0.28298-3.387-1.0955-4.1996-0.24345-0.24346-1.2173 0.24345-1.4607 0-0.72289-0.72289-1.1638-1.9625-1.6433-2.9214-0.40405-0.80811 1.0418-2.1911 0.73036-2.1911-0.11451 0-1.6206-0.52512-1.8259-0.73036-0.11342-0.11342-1.0956-0.0913-1.2781-0.18259-2.0914-1.0457-4.7473-1.5434-4.7473-4.3822 0-0.3297-0.23861-0.85693 0-1.0955 2.7997-2.7997 9.1365-4.024 11.503-6.3906 0.62838-0.62838 4.6298-1.5258 6.0254-2.9214 0.83383-0.83383 3.4564-0.16974 4.3822-1.0955 0.60319-0.60318 0.59344 2.4193 0.73036 2.5563 1.4348 1.4348 2.8303 1.0044 2.9214 1.0955 0.58647 0.58647 1.1849 2.0085 2.1911 2.0085 0.86474 0 1.2565 0.18259 2.1911 0.18259 0.24345 0 0.73036-0.24345 0.73036 0 0 0.85353-3.5829 3.7207-1.0955 6.208 0.80792 0.80791 2.9626 0.77151 3.8344 1.6433 0.84063 0.84063 1.4174 1.6 2.3737 2.5563 0.84455 0.84455 2.3426 0.44092 3.2866 0.91295 1.6995 0.84975 1.6373 2.6445 3.2866 3.4692 0.52768 0.26384 1.2144 0.0594 1.8259 0.36518 0.62465 0.31232 1.286 1.282 2.0085 1.6433 3.1587 1.5793 6.335 2.8658 8.7643 5.2951 0.38593 0.38594 1.5423 0.0816 1.8259 0.36518 0.98058 0.98058 3.3549 1.7116 3.8344 2.1911 3.6032 3.6032 4.3822 2.8831 4.3822 8.3991 0 1.3726 0.2848 2.4104 0 3.8344z" fill="url(#dt)" filter="url(#ee)" stroke="#f7faf7" stroke-width=".7"/>
  <path d="m311.08 277.36c-0.74783 2.1164-2.0625 4.071-3.2866 5.2951-0.93894 0.93895-1.0744 2.9003-1.6433 3.4692-0.19804 0.19804-3.9168 1.3282-4.3822 1.0955-0.46524-0.23262-1.1154-0.75018-1.4607-1.0955-0.70738-0.70738-2.5362-0.44647-3.4692-0.91295-1.3224-0.66118-8.5626-4.1805-8.9469-4.5647-0.64471-0.64472-2.129-2.9214-2.9214-2.9214-1.2482 0-8.5585-3.6286-9.1295-4.1996-0.36479-0.36479-0.075-1.1705-0.36518-1.4607-0.34011-0.3401-0.89483 9e-3 -1.2781-0.18259-1.1417-0.57083-1.7846-2.515-2.3737-3.104-0.93839-0.93839-2.9248-0.5545-3.6518-2.0085-0.86023-1.7204-1.5523-2.1-2.7388-3.2866-0.28802-0.28801-0.36906-1.282-0.91295-1.8259-0.63754-0.63755 2.2299-1.5383 2.0085-1.0955-0.77005 1.5401-1.2944-1.8422-1.4607-2.0085-0.39653-0.39653-1.4855-0.46886-2.0085-0.73036-0.38038-0.19019-0.66379-1.029-0.91295-1.2781-0.014-0.014-0.87386-2.5563-0.54777-2.5563 0.34207 0 1.4848 1.4848 1.8259 1.8259 1.1112 1.1112 3.8817 0.41254 4.9299 1.4607 0.29019 0.29019 2.8027-0.24645 2.9214-0.36518 0.18259-0.18258 0-0.73035 0.18259-0.91294 0.65618-0.65618 6.5549-2.392 6.9384-2.0085 1.0096 1.0096 1.8233 2.1885 2.9214 3.2866 1.1845 1.1845 3.3058 1.8451 4.3822 2.9214 0.90843 0.90843 3.9468 1.5731 4.3822 2.0085 0.89843 0.89843 2.6658 2.2458 4.3822 3.104 2.3333 1.1666 4.8201 1.6797 7.3036 2.9214 1.1467 0.57333 3.5188 0.59742 4.3822 1.4607 1.7657 1.7657 7.4223 4.3456 4.9299 7.6688z" fill="#a59a99" filter="url(#dd)" stroke="#fcfffc" stroke-width="1px"/>
  <path d="m320.03 270.42c-1.1041 3.4738-4.6519 4.7473-9.1295 4.7473-0.82699 0-1.45 0.27926-2.0085 0-0.46453-0.23227-0.96935-0.78676-1.2781-1.0955-0.35837-0.35838-0.79691-0.0666-1.0955-0.36518-6.149-1.9495 1.4607-7.3036 1.4607-7.3036s-4.8664 5.6589-8.2165 3.8344c-8.8666-4.8288-12.367-3.0549-5.4777-12.964-6.4053 6.542-3.8809 5.128-8.034 4.9299-0.0967-0.19349-2.6682-2.4856-3.104-2.9214-0.70975-0.70975-1.943-0.66486-2.7388-1.4607-0.73036-0.73036-0.91295-2.0085-1.6433-2.7388-1.3862-1.3862 2.6104-0.23669 3.104-0.73036 0.52441-0.52441 3.7505-2.2404 4.7473-2.7388 3.9315-1.9657 5.653 2.0012 7.6688 4.017 0.0913 0.0913 0.45647-0.0913 0.54777 0 1.016 1.016 2.5773 1.4818 3.6518 2.5562 0.83464 0.83464 3.0704 0.87935 3.8344 1.6433 1.2307 1.2307 3.0997 1.7324 4.7473 2.5562 3.8822 1.9411 7.5879 3.571 10.408 6.3906 0.97128 0.97128 1.4058 0.49283 2.5562 1.6433z" fill="#a59a99" filter="url(#dc)" stroke="#fafafb" stroke-width=".34791"/>
  <path d="m269.61 233.74c-5.252 1.3981-12.992 3.1979-16.496 6.7014-0.55731 0.55731-8.0226 3.8336-7.2168 4.6394 1.5981 1.5981 7.9901-1.2071 7.9901-0.77323 0 1.2543-2.6481 1.6172-3.3507 2.3197-0.73153 0.73154-2.062 3.3542-2.062 2.3197 0-1.8042 3.6084 0 5.4126 0 1.286 0 4.0226-0.15648 4.6394-0.77324 0.118-0.11799 1.2975-1.5377 1.8042-1.031 1.1575 1.1575-4.3816 8.5065-4.3816 6.7013 0-1.3312 11.876 1.943 14.176 3.0929 2.0317 1.0159 8.7516-2.185 10.568-3.0929 1.1743-0.58713 11.859-2.0604 12.372-1.8042 0.71199 0.356 3.4094 3.6671 4.1239 4.3816 3.1843 3.1843 13.246-0.15629 18.042 4.6394 3.3066 3.3066 25.773-0.25904 15.722-10.31-5.0525-5.0525-18.941-11.472-25.259-5.1549-1.016 1.0161-4.0097 0.65903-5.1549 1.8042-1.3776 1.3777-7.6058-2.8352-8.5056-2.8352-0.35618 0-1.1903 1.8042-1.5465 1.8042-1.9001 0-7.3211 3.4549-8.7633 4.8971-0.68827 0.68826-4.3045-0.21918-4.8971-0.51549-12.466-6.2329-3.7218-7.7014-5.4126-11.083-1.76-3.52-1.8042-2.9016-1.8042-7.2168" fill="#999" filter="url(#eg)" stroke="#fafafb" stroke-width=".5"/>
  <path d="m279.13 253.44c-0.70034 0.25952-2.1466-4.7029-3.104-5.6603-0.15215-0.15215-0.5782-0.0304-0.73035-0.18259-1.1294-1.1294-6.9277-4.758-8.3991-3.2866-0.62656 0.62657-1.2412 1.2412-1.8259 1.8259-0.77004 0.77003-2.2982 1.02-3.104 1.8259-0.39957 0.39958-0.77968 0.829-1.0955 1.4607-0.1361 0.27219 0 1.2173 0 0.91295v-0.36518c0 0.88496-0.28123 3.4692 0.54776 3.4692 0.43249 0 1.0077 1.6433 0.91295 1.6433-0.124 0 1.1114 0.0158 1.2781 0.18259 0.9961 0.9961 3.4409 1.0672 3.8344 1.4607 0.42714 0.42713 1.5592 0.54776 2.3737 0.54776 0.37021 0 1.4658 0.18259 1.0955 0.18259-0.92295 0 0.0739-0.0739 0.18259-0.18259 0.33474-0.33474 0.5782-0.76079 0.91294-1.0955 0.48691-0.48691 1.7042-0.24346 2.1911-0.73036 0.62947-0.62947 4.9035-0.52131 5.2951-0.91295 0.27219-0.27219-0.22222-0.73814-0.36518-1.0955z" fill="#a59a99" filter="url(#db)" stroke="#fafafb" stroke-width=".34791"/>
  <path d="m291.18 251.25c-0.37929 0.74941-3.9019 0.43273-4.1996 0.73035-0.69014 0.69015-1.8961 1.222-3.104 1.8259-1.0851 0.54255-6.0997 0.10836-6.5732-0.36518-0.97951-0.97952-1.3266-1.5092-2.1911-2.3737-0.30432-0.30432-0.24346-0.97381-0.54777-1.2781-0.47333-0.47333-1.4344-0.15629-1.8259-0.54777-0.4592-0.4592-0.013-2.0085-0.91295-2.0085-1.3772 0-4.1023-2.7507-3.8344-3.2866 1.0394-2.0788 2.4488-1.1706 3.2866-2.0085 0.78765-0.78765 3.1619-1.1534 3.8344-1.8259 1.7138-1.7138 17.281-8.6144 20.267-7.121 0.67187 0.33594-1.9871 2.0085-2.9214 2.0085-0.30412 0-0.89786 0.71527-1.0955 0.91295-0.49229 0.49229-1.3203 0.77257-1.8259 1.2781-0.84101 0.841-0.15186 2.6774-0.73036 3.8344-0.0948 0.18969-0.42104 1.2223-0.18259 1.4607 0.99287 0.99288 2.7682 1.4901 3.6518 2.3737 0.36651 0.36651 0.52699 1.2574 0.91295 1.6433 0.46092 0.46092 2.247 0.78629 2.9214 1.4607 0.74197 0.74197 3.104 0.59476 3.104 0.73036 0 0.37022-0.83376-0.0792-1.0955 0.18259-0.0836 0.0836-0.41252 1.596-0.18259 1.8259 0.5792 0.5792 3.2866 3.8715 3.2866 4.017 0 0.37087 1.6619 1.8073 1.8259 1.6433 0.22388-0.22388-1.0252-0.58964-1.0955-0.73036-0.36415-0.7283-2.4164-1.7287-3.104-3.104-0.0981-0.19627-0.62451-2.8447-0.36518-3.104 0.0451-0.0451 0.56972-0.52582 0.36518-0.73036-0.74203-0.74203-2.9634-0.042-3.8344-0.91295-0.23997-0.23996-2.4551-2.84-2.9214-2.3737-2.856 2.856-1.261 4.1024-0.91295 5.8429z" fill="#a59a99" filter="url(#da)" stroke="#fafafb" stroke-width=".34791"/>
  <path d="m264.16 245.4c-1.5415 1.5017-7.5336 3.4692-12.781 3.4692-0.27374 0-3.6518 1.0222-3.6518 0.73036 0-0.37995 0.25606-0.0735 0.36518-0.18259 1.4055-1.4055 2.6625-1.9321 4.017-3.2866 0.62116-0.62116 1.8895-0.61141 2.3737-1.0955 0.025-0.025 0.24608-0.69861 0.18259-0.73036-0.55369-0.27684-3.3454 0.60655-3.6518 0.91295-0.32894 0.32893-2.0636-0.0637-2.5563 0.18259-0.75929 0.37965-3.0738-0.39537-3.6518 0.18259-0.57072 0.57072-0.78342 0.20912-1.8259 0.73036-1.2306 0.61532-3.6434 1.2698-4.3822 2.0085-0.38579 0.38579-1.7492-0.0767-2.1911 0.36518-1.6722 1.6722-7.9385 2.0957-10.408 4.5647-0.60157 0.60157-5.7427 1.3606-7.121 2.7388-0.3819 0.3819-1.7038 0.0605-2.1911 0.54777-1.0373 1.0373-5.8883 2.7615-7.6688 3.6518-0.62361 0.3118-2.0635 0.23762-2.5562 0.73036-0.61215 0.61215-3.9746 2.289-4.1996 2.7388-0.14246 0.28491-2.4171 2.4867-2.9214 2.7388-0.66448 0.33223-1.5965-0.11472-2.1911 0.18259-1.4522 0.7261-3.127 1.8488-4.1996 2.9214-0.62342 0.62343-2.3678-0.0117-2.9214 1.0955-0.7372 1.4744-1.8545 3.1326-2.9214 4.1996-0.16564 0.16563-1.5982 1.0032-1.4607 1.2781 0.64929 1.2986 3.3037-0.54777 3.8344-0.54777 0.17215 0-0.28819 0.2112-0.36518 0.36518-0.36377 0.72755-0.28817 1.0185-0.73036 1.4607-0.36485 0.36485-0.8833 2.0974-0.73035 2.5563 0.1442 0.43261 2.5562-0.90696 2.5562-1.2781 0-1.0286 4.8629-2.8544 5.8429-3.8344 0.56907-0.56907 1.622-0.34388 2.1911-0.91295 0.36651-0.36651 0.70958-1.0748 1.0955-1.4607 0.62325-0.62325 1.835-0.73949 2.5563-1.4607 2.4183-2.4183 5.8607-3.3044 8.0339-5.4777 0.17261-0.17262 0.94279-0.0298 1.0955-0.18259 0.36355-0.36355 6.4455-3.2318 6.208-3.4692-1.3214-1.3214-6.2565 5.0641-6.0255 5.2951 0.58567 0.58568 1.9801-1.0672 2.0085-1.0955 0.53453-0.53453 7.9217-3.4692 9.3121-3.4692 0.8449 0 3.2191-0.23008 3.2866-0.36518 0.71674-1.4335 6.6021-4.7618 8.3991-5.6603 0.29116-0.14559 1.0535 0.042 1.2781-0.18259 0.61673-0.61674 1.5116-0.29935 2.3737-0.73036 1.9175-0.95876 4.3389-1.4174 5.4777-2.5563 0.41441-0.4144 1.9297 0.22197 2.7388-0.18259 1.5808-0.7904 6.1424-1.7602 7.121-2.7388 0.15216-0.15216 0.76079 0.15216 0.91295 0 1.0209-1.0209 3.3589-1.1678 4.3822-2.1911 0.49007-0.49007 1.9998 9e-3 2.5563-0.54777 0.73353-0.73353 1.8927-1.0394 3.104-2.0085z" fill="#999" stroke="#000" stroke-width=".7"/>
  <path d="m244.62 253.26c0.31841 0.86403 0.51427 1.4272 1.0955 2.0085 0.11582 0.11582 0.57833-0.076 0.73036 0 1.9071 0.95355 9.4204-1.0213 10.773-2.3737 0.80226-0.80225 0.82183-1.7348 1.4607-2.3737 0.45647-0.45648 1.3694-0.45648 1.8259-0.91295 0.26676-0.26677-0.0176-0.69522 0.18259-1.0955 0.42553-0.85106 1.3769-1.2362 2.1911-1.6433 0.82448-0.41224 1.6433-1.2353 1.6433-1.0955 0 0.15715-3.5692 1.3781-3.8344 1.6433-0.91591 0.91591-5.0495 1.2152-5.6603 1.8259-0.52885 0.52885-1.8852 0.42454-2.3737 0.91295-1.8237 1.8237-5.3422 1.489-8.0339 3.104z" fill="#a59a99" filter="url(#ef)" stroke="#fafafb" stroke-width=".5"/>
  <path d="m406.97 303.7c-7.9919 5.2974-15.792 10.79-22.507 17.505-2.2908 2.2908-6.8894 3.042-9.426 5.5786-0.6552 0.6552-2.6451 0.55309-3.4626 0.96183-9.3912 4.6956-42.775 5.8933-49.246-0.5771-3.0827-3.0827-10.054-3.1588-14.427-4.6168-2.1445-0.71482-4.8202-4.2431-5.771-5.1939-1.0888-1.0888-1.857-2.7521-2.5008-4.0397-0.19236-0.38474-1.0072-1.1542-0.5771-1.1542 2.4872 0 4.3087-2.5774 6.1557-4.4244 2.3842-2.3842 6.4636-1.4621 8.2718-3.2702 0.91555-0.91556 5.5327-4.4704 5.9634-4.0397 0.95235 0.95235 7.1084 4.9985 8.2718 5.3863 1.3319 0.44396 4.2225-0.01 5.1939 0.96183 2.5667 2.5667 6.2915 5.1373 8.4641 7.3099 1.0055 1.0055 3.5007 0.23047 4.4244 1.1542 5.4921 5.4921 30.483 4.0915 37.511 0.5771 3.577-1.7885 7.9856-2.2146 10.388-4.6168 2.6224-2.6224 9.7931-4.0221 13.273-7.5023z" fill="url(#du)"/>
  <path d="m264.71 244.49c-2.4393-3e-3 -7.6821 1.63-9.4947-0.18259-0.73463-0.73463 1.1769-1.684 1.4607-1.8259 0.5339-0.26694 6.8136-3.5847 6.9384-3.8344 0.28101-0.56203 5.2818-3.6518 5.8429-3.6518 0.27235 0-0.67307-0.0573-0.73036 0-0.32939 0.32939-0.91312 1.4604-0.54777 2.1911 0.4417 0.8834 1.1727 0.36517 1.8259 0.36517 0.0392 0-0.0519 0.86109 0 0.91295 0.1468 0.1468 0.66308 0.36518 0.91295 0.36518 2.5746 0 4.8549-1.0955 7.121-1.0955 1.2728 0 2.7388-0.95548 2.7388-0.73035 0 0.14315-1.0641-0.214-1.2781 0-0.51308 0.51307-1.2034 0.65565-1.6433 1.0955-0.41461 0.41461-3.5218 1.5133-3.6518 1.6433-0.96874 0.96874-7.9532 4.1308-9.4947 4.7473z" fill="#a59a99" filter="url(#gv)" stroke="#fafafb" stroke-width=".34791"/>
  <path d="m259.78 240.47c-0.30605 6e-3 -1.3614 0.82963-1.6433 0.54777-1.6859-1.6859 6.6666-5.8429 8.034-5.8429 1.1196 0 1.9699-1.2781 2.7388-1.2781 0.41816 0 1.9689-0.65884 1.8259-0.73036-1.228-0.61398-1.8597 0.94679-2.1911 1.2781-0.29018 0.29018-0.36557 0.73075-0.73036 1.0955-0.54868 0.54868-1.5349 0.43933-2.0085 0.91295-1.6549 1.6549-3.5801 3.5279-6.0255 4.017z" fill="#a59a99" filter="url(#gu)" stroke="#fafafb" stroke-width=".34791"/>
  <path d="m290.63 233.17c-1.1771-0.059-3.4372 0.74639-4.5648 0.18259-1.4884-0.74419-2.5017-1.5888-3.4692-2.5562-0.48286-0.48286-2.1645 0.54777-2.5562 0.54777-0.21132 0-1.8522 0.93927-2.0085 1.0955-0.1321 0.13211-6.4254 0.94777-7.3036 1.8259-0.65876 0.65876-1.276 1.4597-2.0085 1.8259-0.1224 0.0612-0.26932 1.2781-0.36518 1.2781-0.11936 0 2.3932 0.54777 2.3737 0.54777h0.36518c0.66054 0 6.682 0.0738 6.7558 0 1.6703-1.6703 7.4242-2.4943 8.0339-3.104 0.67705-0.67704 1.5766 0.24929 2.3737-0.54777 0.21882-0.21882 2.043-0.68222 2.3737-1.0955z" fill="#a59a99" filter="url(#gt)" stroke="#fafafb" stroke-width=".34791"/>
  <path d="m296.29 232.81c-0.51139 1.3546-2.2756 1.2477-3.3334 1.9707-1.355 0.51721-1.5272 2.209-2.7925 2.7832-1.321 0.49029-0.58005 1.901-0.6528 2.9075 0.12349 0.75846-1.6525 1.229-0.43479 1.7024 1.2451 0.0327 1.9293 1.0943 2.7453 1.8694 1.0365 1.0004 1.9986 2.0985 3.105 3.0141 1.0821 0.8206 2.3939 0.13669 3.5531 0.48666 2.4496 1.0741 4.086-0.35499 7.8189-2.5833 1.9864-0.72723 2.2854-1.5246 3.6786-1.8041 0.87716-0.14926 0.64566-0.78301-0.0209-0.97163-0.66981-0.96186 0.0532-2.37 0.99467-2.9636 0.62954-0.82454 2.4961-1.5923 1.8764-2.7751-1.3952-0.74338-2.9514 0.0646-4.2647 0.60815-1.0492 0.61284-2.1658 1.1255-3.4007 1.1506-1.1529 0.16007-2.3119 0.33843-3.4795 0.301-0.97421-0.48782-1.6344-2.1604-2.8402-1.7782-1.2668 0.0283-1.5819-1.5268-2.0816-2.4266-0.20118-0.48151-0.3666-0.97933-0.47087-1.4912z" fill="#a59a99" filter="url(#gs)" stroke="#fafafb" stroke-width=".34791"/>
  <path d="m332.45 268.59c-1.7369 0.92768-3.5284 2.2039-5.6094 1.7482-1.924 0.25264-3.7643 1.1087-5.751 0.77816-2.07 0.10025-3.8487-0.94478-5.3531-2.2523-1.4584-1.0773-3.3705-0.98353-4.9975-1.6891-2.0315-0.24024-3.4682-1.7253-4.9741-2.9461-1.5229-1.7181-4.2133-1.5696-5.6324-3.4324-3.1598-2.8312-7.4502-4.1641-10.26-7.4136-1.0946-2.1944 2.7858-1.4159 3.6148-0.28727 1.7163 1.0873 2.7895 3.1144 5.0334 3.2925 1.8117 0.938 3.7346 2.049 5.8364 1.9357 0.29311-0.62857-2.3385-1.3893-0.68047-2.0734 1.8413 0.50831 3.4192 1.7397 5.0704 2.6901 1.9052 0.73593 3.8835 1.2314 5.8329 1.7287 2.1391 0.29429 3.9978 1.2514 6.0112 1.8834 1.6775 0.8622 3.073 2.1856 4.8527 2.8673 1.6697 0.81293 3.3671 1.666 4.7038 2.9836 0.72982 0.32858 1.5386 0.0863 2.3027 0.18655z" fill="#a59a99" filter="url(#gr)" stroke="#fafafb" stroke-width=".34791"/>
  <path d="m312.18 259.83c0.71116 1.0496-1.1935 2.4582-0.36518 3.2866 0.71166 0.71166 1.4732 2.021 2.1911 2.7388 0.76003 0.76003 2.5457 0.90241 3.2866 1.6433 0.86765 0.86765 5.5277 3.7843 7.3036 2.0085 0.29862-0.29862 1.2849-7e-3 1.6433-0.36518 0.25755-0.25755 3.8225-0.35331 4.3822-0.91295 0.31157-0.31156-1.5596-0.73036-1.8259-0.73036-1.1277 0-1.6327-0.72507-2.7388-1.2781-1.9314-0.96572-3.9279-2.3292-5.8429-3.2866-1.2876-0.64382-2.8281-0.31853-4.017-0.91295-0.10797-0.054-4.7336-1.4744-4.017-2.1911 0.30432-0.30432 0.60863 0.60863 0 0z" fill="#a59a99" filter="url(#gq)" stroke="#fafafb" stroke-width=".34791"/>
  <path d="m319.67 258.19c-0.30289 5.7331 3.5501 4.4631 6.3906 7.3036 0.54437 0.54437 2.2918 0.64845 2.9214 1.2781 0.6261 0.62611 1.8387 0.18898 2.5562 0.54777 0.25808 0.12904 2.2416 0.86245 2.7388 0.36518 0.9003-0.9003 0.17974-0.72467 0.73035-1.8259 0.22024-0.44047 3.5194-2.3075 4.017-2.5563 0.15525-0.0776 0.32642-0.54777 0.36518-0.54777 0.0949 0-1.503-0.18259-2.9214-0.18259-0.68792 0-1.6692-0.20846-2.0085-0.54777-0.69296-0.69295-3.4957 0.36518-4.1996 0.36518-5.0434 0-6.3276-3.1339-10.59-4.1996z" fill="#a59a99" filter="url(#gp)" stroke="#fafafb" stroke-width=".34791"/>
  <path d="m341.94 261.66c-1.5548 0.0468-3.4216 0.13496-4.1996 0.91294-0.89576 0.89576-4.9218-0.72224-5.1125-0.91294-0.3323-0.33231-4.6806 0.97966-5.2951 0.36517-1.318-1.318-4.1178-1.7441-5.4777-3.104-0.29862-0.29862-1.2849-7e-3 -1.6433-0.36518-1.0491-1.0491-2.4545-1.9576-4.017-2.7388-0.76598-0.38299-0.83328-1.5636-1.2781-2.0085-0.70062-0.70061-2.5294-1.4338-3.4692-2.3737-1.7872-1.7872-1.5248-5.3495-0.73036-6.9384 0.0918-0.18368 1.9316 1.9316 2.0085 2.0085 0.41852 0.41851 4.4604 4.017 6.3906 4.017 1.2697 0 3.6785 1.0822 5.1125 0.36518 0.20987-0.10494 1.849-0.88988 2.1911-0.54777 0.25975 0.25974 0.13421 1.0472 0.36518 1.2781 0.55939 0.55938 1.3897 0.65934 1.8259 1.0955 0.34635 0.34636 0.73083 1.2786 1.0955 1.6433 0.91004 0.91004 1.7698 1.4046 2.7388 2.3737 0.43838 0.43838 2.9409 0.56724 3.2866 0.91294 0.89464 0.89464 2.2113 1.4809 3.2866 2.5563 0.37126 0.37126 1.6372 0.1765 2.0085 0.54777 0.043 0.043 0 0.12172 0 0.18259 0.30432 0.24345 0.60863 0.4869 0.91295 0.73036z" fill="#a59a99" filter="url(#go)" stroke="#fafafb" stroke-width=".34791"/>
  <path d="m326.42 249.79c-0.093-0.32922-0.37359-1.8343-1.4607-2.9214-0.43988-0.43989 0.1479-1.8606-0.36517-2.3737-0.27198-0.27197-0.82505-0.55456-1.0955-1.0955-2.0068-4.0136-3.9729-0.68629-5.1125-1.8259-0.45894-0.45895-0.82067-0.59293-1.4607-0.91295-0.31561-0.15781-4.1996-4.6407-4.1996-3.6518 0 0.46374-4.0753 4.1413-2.7388 5.4777 0.92065 0.92066 0.977 2.6203 2.0085 3.6518 1.6003 1.6003 3.9001 2.8046 5.4777 4.3822 0.73762 0.73761 2.1506 0.50726 2.7388 1.0955 0.12911 0.12911 0.73036 0 0.54777 0h-0.36518c2.1171 0 6.0255 0.72574 6.0255-1.8259z" fill="#a59a99" filter="url(#gn)" stroke="#fafafb" stroke-width=".34791"/>
  <path d="m310.35 278.64c-1.1749 1.7662-1.3184 4.0572-2.3737 5.1125-0.72799 0.72799-0.82027 2.281-1.4607 2.9214-0.68989 0.6899-2.1719 0.32675-2.7388 1.4607-0.54121 1.0824 0.65245 2.583 1.0955 3.4692 0.53858 1.0772 0.54776 8.3843 0.54776 10.225 0 0.89423 2.5539 3.6542 3.2866 2.9214 2.0409-2.0409 1.0426-2.4796-0.18259-4.9299-0.46554-0.93108-0.18259-2.7636-0.18259-3.8344 0-1.7125 1.8732-6.12 2.7388-7.8514 0.49972-0.99943-0.58862-3.1449-0.91294-3.4692-0.58094-0.58093 0.051-5.3675 0.18258-6.0255z" fill="#6c5353" stroke="#fffdff" stroke-width=".7"/>
  <path d="m291.17 306.51c-1.3577 0.3431-0.89387 1.6624 0.36517 2.9214 0.60342 0.60341 2.7436-0.36041 3.2866 0.18259 1.2673 1.2673 6.3063 0.0843 7.121-0.73036 0.27957-0.27957 1.3266-0.0485 1.6433-0.36518 0.31666-0.31666 1.5463 0.097 1.8259-0.18259 0.34793-0.34793-2.3303-0.68699-2.3737-0.73036-0.47451-0.47451-1.3594-2.1098-0.73036-2.7388 0.15186-0.15186 0.32466-0.68984 0.54777-0.91295 0.21302-0.21302 0.69993-0.15216 0.91295-0.36518 0.46397-0.46397 0.48262-1.5782 0.91295-2.0085 0.36518-0.36517-0.18259-1.6433 0.18259-2.0085 0.70198-0.70198-1.01-1.7289-1.2781-1.4607-1.4573 1.4573-1.0851 5.6499-2.5562 7.121-0.57242 0.57241 0.54776 1.9487 0.54776 2.3737 0 0.12173-0.24345 0-0.36518 0h-2.1911c-0.67514 0-7.3832-0.86144-7.8514-1.0955z" fill="url(#dv)"/>
  <path d="m310.54 286.67c1.2487-1.9242 3.197-1.9188 4.5648-3.2866 0.98987-0.98987 1.1801-5.0145 1.6433-5.4777 0.30232-0.30232 2.5714-6.208 2.9214-6.208 0.72449 0-0.6621 1.2099-1.2781 1.8259-0.67078 0.67078-3.8462 0.55958-4.1996 0.91295-0.63463 0.63463-1.9984 0.72024-2.7388 1.4607-1.0097 1.0097-1.9908 8.617-0.91295 10.773z" fill="#a59a99" filter="url(#gm)" stroke="#fafcfc" stroke-width="1px"/>
  <path d="m309.62 303.65c0.0406 2.7739 1.826 3.6519 3.2866 5.1125 0.28508 0.28508 1.2349 0.32196 1.4607 0.54777 0.12362 0.12363 1.3472 1.3916 1.6433 1.0955 0.3722-0.3722-1.6048-5.372-0.91294-6.7558 0.46586-0.93174 0.7636-1.6766 1.4607-2.3737 0.36294-0.36294 1.1635-0.43314 1.4607-0.73035 0.15216-0.15216 0.5782-0.0304 0.73036-0.18259 0.4816-0.48161 0-3.9905 0-4.7473 0-1.8794-0.18421-4.198 0.91295-5.2951 0.0874-0.0874 0.0624-6.2705 1.2781-7.4862 0.1882-0.1882-6e-3 -1.0899 0.18259-1.2781 0.57771-0.5777 0.65572-2.0418 1.0955-2.9214 0.46088-0.92175 1.4446-1.9924 2.0085-2.5562 0.4861-0.48611 1.2263-3.2348 2.0085-4.017 0.0498-0.0498 0.2361-1.4072 0.18259-1.4607-0.3919-0.3919-2.04 0.19833-2.3737 0.36518-1.1016 0.55079-3.8004-0.39916-4.5647 0.36518-0.60178 0.60178-1.1228 3.3412-1.6433 4.3822-0.52477 1.0495-1.8084 5.8254-2.1911 6.208-0.86121 0.86122-2.3954 1.4825-3.2866 2.3737-0.86254 0.86254-1.1448 2.2404-2.0085 3.104-0.49306 0.49307 0.31048 2.611-0.18258 3.104-0.77943 0.77943-0.6985 2.5244-1.4607 3.2866-0.51865 0.51865 0 4.2975 0 5.1125 0 0.17315-0.11027 0.98527 0 1.0955 0.7336 0.7336 0.91295 2.2598 0.91295 3.6518z" fill="#917c6f" filter="url(#df)" stroke="#fbfcff" stroke-width="1px"/>
  <path d="m318.75 300.18c-3.5097 1.5925-3.4692 3.3989-3.4692 7.8514 0 0.31995-0.20361 1.8049 0 2.0085 0.76915 0.76914 2.6092 0.78329 3.4692 1.6433 0.17428 0.17428 1.9453 2.4369 2.1911 2.1911 0.53512-0.53511-0.36518-2.3066-0.36518-2.7388 0-0.59389-0.45689-1.279-0.73035-1.8259-0.14061-0.28121-0.042-0.81433-0.18259-1.0955-1.3628-2.7255-2.2089-4.7941-0.91295-8.0339z" fill="#ccc" filter="url(#dj)" stroke="#fbfbfc" stroke-width=".8"/>
  <path d="m317.84 311.68c-2.0198 2.1659 1.8079-1.6253-0.91295 1.0955-0.97999 0.97999-0.59081 3.061 0.18259 3.8344 0.0913 0.0913-0.0913 0.45648 0 0.54777 0.92516 0.92517 1.8532 2.5836 2.7388 3.4692 1.8313 1.8313 9.8827 3.6632 12.416 4.9299 0.78038 0.3902 1.8469 0.38615 2.3737 0.91295 0.4413 0.44131 6.208 0.77006 6.208 0.54777 0-0.23105-1.7845-1.0209-2.0085-1.0955-0.98361-0.32786-1.6647-0.85923-2.9214-1.2781-1.7048-0.56826-3.5101-0.744-5.1125-1.2781-3.4912-1.1637-4.2498-2.9717-6.208-4.9299-0.74316-0.74316-1.9956-0.7175-2.7388-1.4607-0.5394-0.5394-0.76283-2.5887-1.0955-2.9214-0.0915-0.0915-0.61065-0.0629-0.73036-0.18259-0.73341-0.73342-1.0655-1.2906-2.1911-2.1911z" fill="#483737" filter="url(#dl)" stroke="#fcfafa" stroke-width="1px"/>
  <path d="m327.7 321c2.4587 0.29401 4.4342 1.8259 6.7558 1.8259 0.60863 0 1.8259 0.60863 1.8259 0 0-0.23179-2.5406-1.2781-2.7388-1.2781-0.79985 0-7.0516-4.6779-7.6688-5.2951-0.80803-0.80803-0.45911-5.2064-0.91295-5.6603-1.0832-1.0832-1.8418-2.9374-2.5562-3.6518-6e-3 -6e-3 -0.44341 1.3564-0.54777 1.4607-0.91843 0.91843-1.1328 3.9797 0 5.1125 0.60992 0.60992 0.0103 2.5666 0.73036 3.2866 0.48111 0.48112 1.2224 0.6746 1.6433 1.0955 1.2406 1.2406 1.4351 2.2904 3.4692 3.104z" fill="none" filter="url(#dm)" stroke="#f3f4f4" stroke-width="1px"/>
  <path d="m322.22 307.9c0.39309-0.30074-3.5909-9.1904-2.3737-10.408 0.76498-0.76499 1.1641-1.8944 1.8259-2.5562 0.15216-0.15216 0.76079 0.15216 0.91295 0 0.45647-0.45647-0.45647-2.2824 0-2.7388 0.53434-0.53433 2.2023-3.4916 2.5562-4.1996 0.65093-1.3019 1.7307-1.5957 2.9214-2.1911 0.0533-0.0267 1.4607-1.0454 1.4607-0.91295 0 1.0374-1.0648 2.6773-1.6433 3.8344-0.51818 1.0364 0.18671 2.5439-0.18259 3.6518-0.18621 0.55862-0.45387 0.81905-0.73036 1.0955-0.3545 0.35451 0.73194 5.8413 0.18259 6.3906-0.5605 0.5605-1.0955 5.0746-1.0955 6.0255 0 3.3143 1.539 3.9127 3.2866 5.6603 0.71656 0.71656 0.55854 2.567 1.2781 3.2866 0.10405 0.10405 0.5546 2.7388 0.36518 2.7388-1.5387 0-3.876-1.3197-4.9299-2.3737-0.40561-0.40562-0.25385-1.3494-0.73036-1.8259-0.55646-0.55646 0.1249-2.2488-0.36518-2.7388-0.84025-0.84026-1.5359-1.5359-2.7388-2.7388z" fill="#c8beb7" filter="url(#di)" stroke="#000" stroke-width="1px"/>
  <path d="m331.97 269.31c0.32114 0.30224-2.9775 7.5566-1.8259 9.8598 0.29267 0.58533 1.226 1.565 0.73036 2.5563-0.74599 1.492-1.526 2.439-2.7388 3.6518-0.32103 0.32103-1.7283 0.63276-2.1911 1.0955-1.0439 1.0439-1.2346 2.5127-2.1911 3.4692-0.71385 0.71385-0.97855 2.6218-1.6433 3.2866-0.15216 0.15216 0.15216 0.76079 0 0.91295-0.62584 0.62584-1.3924 1.0273-2.0085 1.6433-0.32509 0.32509-0.29387 0.84164-0.54777 1.0955-0.42604 0.42605-0.66949 1.0347-1.0955 1.4607-0.0861 0.0861 0.0861 0.45125 0 0.36518-1.6109-1.6109-1.179-7.7679 0.36518-9.3121 0.12337-0.12337 0.0962-4.5746 0.36518-5.1125 0.42988-0.85976 1.7971-5.9966 2.0085-6.208 1.0652-1.0652 2.1689-2.7167 2.7388-3.2866 0.1512-0.1512 0.44118-2.8148 1.2781-3.6518 0.63603-0.63603 5.0609-1.0439 5.1125-1.0955 0.47826-0.47826 0.55353-0.5124 1.6433-0.73036z" fill="#ac9d93" filter="url(#de)" stroke="#fffffe" stroke-width=".7"/>
  <path d="m336.1 322.82c1.7374 0.29191 13.932 5.24 14.79 4.3822 0.26849-0.26848-5.85-3.1111-6.0255-3.2866-0.94736-0.94737-1.3203-1.6855-2.3737-2.7388-0.54017-0.54017-1.7344-0.0911-2.1911-0.54777-1.7297-1.7297-3.7576-2.4794-5.4777-4.1996-0.94463-0.94463-1.0077-2.7458-1.6433-4.017-0.28442-0.56884-1.6433-5.8383-1.6433-6.208 0-0.63009 0.0797-1.484-0.18259-2.0085-0.0197-0.0394-0.4576-0.73036-0.36518-0.73036 0.27219 0-0.24345 0.48691-0.36518 0.73036-0.17135 0.3427 0.0697 1.0259-0.18259 1.2781-0.26552 0.26552-1.9308 3.1817-1.0955 4.017 0.6986 0.69861 1.4607 3.7929 1.4607 4.7473 0 0.34282 0.54326 2.1911 0.36518 2.1911-0.77007 0-2.462-0.40935-3.4692-0.91294-0.29847-0.14924-1.4694-1.2695-1.6433-1.0955-0.88999 0.88999 0.9165 2.1946 1.0955 2.3737 0.72525 0.72525 1.6573 1.4748 2.3737 2.1911 0.30431 0.30431 0.24345 0.97381 0.54776 1.2781 0.61114 0.61113 1.6844 0.95398 2.1911 1.4607 0.52058 0.52059 4.1303 1.2435 4.5647 1.4607" fill="#6c5d53" filter="url(#dk)" stroke="#000" stroke-width=".6"/>
  <path d="m333.73 279.91c-0.13575 0.54256-0.65659 1.0218-0.91295 1.2781-0.43988 0.43988-1.1302 0.58246-1.6433 1.0955-1.5749 1.5749-1.3344 4.0732-2.9214 5.6603-0.54781 0.54781 0.0386 4.5261-1.2781 5.8429-0.67334 0.67334 0.44299 3.3136 0 4.1996-1.5061 3.0123-2.0839 5.692-0.36518 9.1295 0.3002 0.6004 0.66139 1.8259 0.73036 1.8259 0.85398 0 1.682 0.38452 2.0085 0.54777 0.2912 0.1456 0.18259-1.0394 0.18259-1.2781 0-0.71481 1.0701-2.1656 1.6433-2.7388 0.77348-0.77348-0.18259-6.0932-0.18259-7.3036 0-1.4532 0.22237-3.1438 1.0955-4.017 0.4374-0.4374-0.19918-2.3902-0.36518-2.5563-0.52954-0.52954 0.18259-3.3587 0.18259-3.8344 0-2.7573 1.2224-4.8186 2.1911-6.7558 0.18845-0.3769-0.99224-0.84472-0.36518-1.0955 0.30431-0.12173 0.24345 0.60863 0 0z" fill="#b3b3b3" filter="url(#dh)" stroke="#fefbfa" stroke-width=".6"/>
  <path d="m331.53 282.65c1.3012-2.3598 2.0591-4.2502 3.6518-5.8429 0.65651-0.6565 0.96197-2.0575 1.6433-2.7388 1.5349-1.5349 4.7473-3.1239 4.7473-6.0255 0-1.0337 1.2326-3.7432 1.6433-4.5647 0.121-0.24201 0.54365-1.83 0.54777-1.8259 0.77109 0.77109-2.9935 0.73035-3.4692 0.73035-0.23223 0-1.3129-0.14781-1.4607 0-1.1252 1.1252-1.702 2.2498-2.7388 3.2866-0.13097 0.13096-0.73036 0.34001-0.73036 0.54777 0 1.7178-1.9418 2.6722-2.9214 3.6518-0.51376 0.51376-1.5377 4.5362-2.0085 5.4777-0.0958 0.19156 0.14574 0.76721 0 0.91295-1.6379 1.6379 2.1928 4.196 1.0955 6.3906z" fill="#a59a99" filter="url(#gl)" stroke="#fbfaf8" stroke-width=".5"/>
  <path d="m348.52 259.65c-2.1086 1.2741-3.9444 1.7533-5.6603 3.4692-0.1889 0.1889-0.32988 5.2598-1.4607 6.3906-0.71287 0.71287-1.4421 1.8073-2.0085 2.3737-0.66344 0.66344-1.7887 1.2409-2.3737 1.8259-0.77767 0.77767-0.86026 2.321-1.6433 3.104-0.71421 0.71422-1.507 1.1882-2.0085 2.1911-0.85913 1.7182-0.39762 4.0818-1.2781 5.8429-0.72799 1.456 0.46026 4.4697-0.54777 5.4777-0.037 0.037-0.037 0.87593 0 0.91294 0.28409 0.28409 2.4389-4.1475 2.5563-4.3822 0.66486-1.3297 1.1612-2.8045 2.1911-3.8344 0.51743-0.51742 0.095-1.9208 0.54777-2.3737 0.3245-0.3245 1.0955-1.2438 1.0955-1.6433 0-0.28836 0.65767-0.95015 0.91295-1.4607 0.17446-0.34892-0.0734-1.0222 0.18259-1.2781 1.343-1.343 2.0209-3.1165 3.2866-4.3822 0.66182-0.66181 1.4531-1.9932 2.0085-3.104 0.50538-1.0108 0.13526-2.6915 0.91294-3.4692 0.91407-0.91407 2.9977-4.2156 3.2866-5.6603z" fill="#a59a99" filter="url(#gk)" stroke="#fefefe" stroke-width="1px"/>
  <path d="m349.79 260.74c-2.8077 1.3254-4.0622 3.5597-5.2951 6.0254-0.20257 0.40516-0.32317 1.0535-0.54776 1.2781-0.26105 0.26104-0.61839 3.2452-0.91295 3.8344-0.37815 0.75629-1.3482 1.3482-2.0085 2.0085-1.2739 1.2739-2.5219 6.1737-3.6518 7.3036-0.3496 0.34959-0.81737 0.72179-1.0955 1.2781-0.89331 1.7866-1.1898 4.1112-2.5562 5.4777-0.44724 0.44724-0.4215 1.6996-0.91295 2.1911-0.48476 0.48475-0.7426 4.9422-1.4607 5.6603-0.35126 0.35126 0.23109 1.7289 0 2.1911-1.5575 3.115 1.2848 15.162 2.7388 16.616 1.9362 1.9362 2.7792 3.9458 5.4777 5.2951 0.51201 0.25601 7.453 1.8591 7.8514 1.4607 0.28087-0.28087-5.473-4.0077-5.8429-4.7473-1.3646-2.7291-2.7698-5.326-4.7473-7.3036-1.0109-1.0109-1.0192-3.499-1.6433-4.7473-0.74401-1.488 1.4653-7.856 2.1911-8.5817 0.43261-0.4326 0.0889-2.0037 0.36518-2.5562 0.48673-0.97347 2.8062-8.4665 3.104-8.7643 0.37004-0.37004 0.38867-3.4927 0.73036-3.8344 1.4269-1.4269 1.183-5.7478 2.7388-7.3036 0.12172-0.12173-0.12173-0.60863 0-0.73036 1.4572-1.4572 1.6623-6.5922 3.104-8.0339 0.12173-0.12173-0.12173-0.60863 0-0.73036 0.77457-0.77457 1.6912-2.1491 2.3737-3.2866z" fill="#c8beb7" filter="url(#dg)" stroke="#fbfffc" stroke-width=".4"/>
  <path d="m348.33 260.38c0.8053-0.23603 2.8728 0.41385 3.4692-0.18259 0.49069-0.4907 2.3372-1.2781 1.6433-1.2781-1.1644 0-3.7033-0.41665-4.3822-1.0955-0.27389-0.27388-1.1868 0.0913-1.4607-0.18259-0.97774-0.97773-2.2355-0.95741-3.2866-2.0085-0.84521-0.84521-1.3028-2.3983-2.0085-3.104-0.53871-0.53871-1.0666-0.70141-1.4607-1.0955-0.94254-0.94255-0.72433-2.5502-1.4607-3.2866-1.6036-1.6036-2.4578-4.1011-4.1996-5.8429-0.28047-0.28047-5.6696 2.9121-7.121 1.4607-1.1404-1.1404-1.9942-2.1768-3.104-3.2866-0.49701-0.49701-1.8325-0.3718-2.3737-0.91295-0.05-0.05-0.66761-1.1583-0.91295-0.91295-0.0913 0.0913 0.0913 0.45648 0 0.54777-1.9446 1.9446 4.1996 6.2738 4.1996 7.6688 0 1.2107 2.0274 2.7483 3.104 3.2866 0.55879 0.27939 1.1586 0.063 1.6433 0.54777 1.3732 1.3732 1.6485 4.3874 2.7388 5.4777 0.40942 0.40942 1.2983 0.56791 1.4607 0.73035 2.4614 2.4614 5.8541 3.4748 9.1295 5.1125 1.4619 0.73095 2.6544-1.4803 3.4692-1.6433 0.80325-0.16065 1.7409 0.16558 1.8259 0.18259" fill="#a59a99" filter="url(#gj)" stroke="#fafafb" stroke-width=".34791"/>
  <path d="m320.94 228.42c-3.4815-0.35648-12.086 2.8521-10.042 6.9384 0.32819 0.65637 9.523 6.9101 10.773 5.6603 0.45399-0.45399-0.91623-1.64-0.18259-2.3737 0.40601-0.40601 1.4607-0.33876 1.4607-0.91295 0-0.32987-2.0155-0.37221-2.1911-0.54776-0.53437-0.53437-0.98565-1.4235-1.4607-2.3737-0.93022-1.8604 2.1863-3.6755 1.6433-6.3906z" fill="#a59a99" filter="url(#gi)" stroke="#fafafb" stroke-width=".34791"/>
  <path d="m334.64 242.48c1.6219-0.98402 2.9696-1.5951 0.54776-4.017-1.4825-1.4825-2.3986-3.6767-3.6518-4.9299-0.86805-0.86805-3.1588-1.3055-4.1996-1.8259-1.8051-0.90255-3.3093-1.6546-5.1125-2.5563-2.0706-1.0353-5.4237 4.1249-4.1996 6.5732 1.5358 3.0716 4.437 1.6982 6.3906 3.6518 2.0833 2.0833 5.128 6.1622 10.225 3.104z" fill="#a59a99" filter="url(#gh)" stroke="#fafafb" stroke-width=".34791"/>
  <path d="m296.84 233.17c-0.17827 4.773 3.6224 3.5458 6.7558 5.1125 1.9978 0.99891 7.0233-1.363 7.8514-2.1911 0.71127-0.71127-1.3558-4.4871 0-5.8429 0.78612-0.78612 3.0594-0.32054 4.017-1.2781 0.46352-0.46352 1.8259-1.3859 1.8259-0.73036 0 0.90625-3.7484-3.4692-6.0255-3.4692-1.2098 0-5.9679 2.6188-7.3036 3.2866-1.4584 0.72918-26.514-0.95113-20.815 4.7473 3.1513 3.1513 9.8273-0.40819 13.694 0.36518z" fill="#a59a99" filter="url(#gg)" stroke="#fafafb" stroke-width=".34791"/>
  <path d="m290.45 224.22c-3.8399 2.7048-9.248 2.6155-13.512 4.7473-1.0099 0.50496-7.8254 4.0429-7.4862 4.3822 3.2092 3.2092 14.797-4.5647 17.529-4.5647 0.86649 0 4.7473-0.78728 4.7473-0.54777 0 1.1168-3.176-4.017-1.2781-4.017 0.30431 0 0 0.60863 0 0z" fill="#a59a99" filter="url(#gf)" stroke="#fafafb" stroke-width=".34791"/>
  <path d="m307.07 217.83c-1.269 1.571-19.446 4.5636-16.981 9.4947 0.22476 0.44952 14.199 1.1388 14.242 1.0955 1.4473-1.4473 4.9283-3.4692 6.9384-3.4692 1.2604 0 3.5291 0.1227 4.1996-0.54777 0.0529-0.0529 1.0955-0.38572 1.0955-0.36518 0 7e-3 -0.25531-0.36518-0.54777-0.36518-1.2027 0-2.2151-0.36518-3.2866-0.36518-2.3811 0-2.0293-1.8467-3.104-2.9214-0.60473-0.60473-2.6019 0.31952-3.2866-0.36518-0.66107-0.66107 0.48262-1.5717 0.73036-2.1911z" fill="#a59a99" filter="url(#ge)" stroke="#fafafb" stroke-width=".34791"/>
  <path d="m358.56 256.18c-3.9151-0.75221-5.5965-3.7706-7.8514-6.0255-0.42518-0.42518-4.7447 2.0098-6.5732 1.0955-0.46943-0.23471-3.8425-2.183-4.1996-1.8259-0.54593 0.54593 1.1571 1.8875 1.2781 2.0085 0.93761 0.9376 1.0555 2.6988 2.1911 3.8344 1.4698 1.4698 4.312 2.5212 6.208 3.4692 4.0383 2.0191 8.6098-2.6911 9.8598-2.1911" fill="#a59a99" filter="url(#gd)" stroke="#fafafb" stroke-width=".34791"/>
  <path d="m339.39 248.14c0.78603 1.529 8.5652 4.5977 9.8598 2.0085 0.0651-0.13013 1.2781 0.0529 1.2781-0.18259 0-0.19111-0.96658-0.41881-1.0955-0.54777-1.7517-1.7517-2.5146-4.3404-4.1996-6.0255-0.76079-0.76079-3.6214 0.5782-4.3822-0.18259-0.75444-0.75444-2.3257-1.0476-3.104-1.8259-0.0264-0.0264-0.57363-0.8871-0.73036-0.73036-0.64154 0.64154-1.6471 0.91676-2.1911 1.4607-0.72118 0.72118 5.675 6.9048 6.7558 7.121" fill="#a59a99" filter="url(#gc)" stroke="#fafafb" stroke-width=".34791"/>
  <path d="m340.66 232.62c-0.35264 1.7069-0.58581 3.2486 0.54777 4.3822 8.5854 8.5854-2.3054 5.0664-2.5562 4.5647-0.63314-1.2663-2.799-2.4339-3.8344-3.4692-0.90734-0.90734-0.81199-3.1857-1.6433-4.017-1.4932-1.4932-4.0818-1.331-2.7388-4.017 0.019-0.0379 0.22928-0.54777 0.36518-0.54777 0.34192 0 2.7513 4.5257 9.8598 3.104z" fill="#a59a99" filter="url(#gb)" stroke="#fafafb" stroke-width=".34791"/>
  <path d="m321.31 227.69c-2.462 3.0259-8.7835-2.537-8.3991-2.9214 0.13867-0.13867 6.141-0.11552 8.3991-2.3737 0.0116-0.0116 3.7938 0.95356 4.1996 0.54776 0.17207-0.17206-6.7287 1.3752-4.1996 4.7473z" fill="#a59a99" filter="url(#ga)" stroke="#fafafb" stroke-width=".34791"/>
  <path d="m330.99 229.7c-0.063 5.4704-11.728-2.5144-10.408-3.8344 0.4114-0.41139 5.6369-4.2229 6.9384-2.9214 0.53654 0.53654-1.3582 3.0239-0.18259 4.1996 1.3919 1.3919 2.7727 0.35854 3.6518 2.5562z" fill="#a59a99" filter="url(#fz)" stroke="#fafafb" stroke-width=".34791"/>
  <path d="m358.19 256.18c1.7048 0.25771 2.5497-0.72708 3.6518-1.2781 2.2816-1.1408-0.49369-1.4066-1.6433-2.5563-0.3653-0.36529-0.25754-1.3531-0.73036-1.8259-0.46964-0.46965-4.6817 0.36518-5.4777 0.36518-0.67109 0-3.0243-1.723-3.4692-1.2781-1.7655 1.7655 6.0979 6.3114 8.7643 6.7558" fill="#a59a99" filter="url(#fy)" stroke="#fafafb" stroke-width=".34791"/>
  <path d="m358.74 249.97c-2.0233-0.36658-0.52185-2.8955-1.4607-3.8344-0.73249-0.73249-3.9181 0.14074-4.9299-0.36518-1.5821-0.79104-2.7596-1.3798-4.3822-2.1911-0.48606-0.24303-4.3906-3.2782-4.7473-2.9214-0.34934 0.34933 3.2012 5.7575 3.8344 6.3906 0.99248 0.99248 7.521 6.5384 10.225 3.8344 1.001-1.001 2.1894-0.73079 2.1911-0.73036" fill="#a59a99" filter="url(#fx)" stroke="#fafafb" stroke-width=".34791"/>
  <path d="m342.05 231.86c-0.0413-5e-3 -0.0734 0.0109-0.0937 0.0312-2.5601 2.5601-1.1688 4.3 1.0938 6.5625 0.84983 0.84983-0.0739 2.1021 0.15625 2.5625 0.0298 0.0596 0.31503-0.12461 1.125 0l0.15625-0.1875c1.8482 1.1713 3.368 1.9305 4.5625 3.125 0.74662 0.74662 9.0522 3.0731 8.0625 1.0938-0.46767-0.93534-1.78-1.4363-2.375-2.0312-1.5047-1.5047-1.3991-4.2741-3.125-6-0.14685-0.14685-4.1965-0.384-5.6562-1.8438-0.48335-0.48336-3.2869-3.239-3.9062-3.3125z" fill="#a59a99" filter="url(#fw)" stroke="#fafafb" stroke-width=".34791"/>
  <path d="m340.85 231.71c-10.198 3.6042-20.628-13.601-6.208-6.3906 0.86108 0.43054 4.2293-0.518 4.9299 0.18259 0.60863 0.60863-1.2173 1.2173-1.8259 1.8259-1.8628 1.8628 3.5324 4.4536 4.1996 4.5647" fill="#a59a99" filter="url(#fv)" stroke="#fafafb" stroke-width=".34791"/>
  <path d="m321.13 219.48c-2.5012-0.0351-8.0198 0.37935-9.6772-1.2781-0.85072-0.85072 4.017-2.952 4.017-2.1911 0 0.23922-6.031 0.55327-6.7558 1.2781-0.45329 0.45328-1.8285 0.18785-2.1911 0.91294-0.21944 0.43889-0.18259 1.9514-0.18259 1.4607 0-1.9528 5.536 3.1843 5.8429 3.2866 1.8483 0.6161 4.1996 0.27452 4.1996 0.36518 0 0.68047 0.30432-1.5216 0.91295-1.8259 1.6903-0.84513 3.8344 0.16074 3.8344-2.0085z" fill="#a59a99" filter="url(#fu)" stroke="#fafafb" stroke-width=".34791"/>
  <path d="m321.13 222.22c0.76179 1.9602-7.3169 1.8392-4.3822-1.0955 0.92032-0.92032 2.6358-0.62729 3.4692-1.4607 0.21539-0.21539-1.5337 2.5563 0.91295 2.5563z" fill="#a59a99" filter="url(#ft)" stroke="#fafafb" stroke-width=".34791"/>
  <path d="m321.31 219.11c-1.8738 0.49376-0.54777-4.0751-0.54777-3.6518 0 2.2344-4.6189-0.67622-4.9299-0.36518-0.85769 0.8577-3.8174 1.0616-4.3822 2.1911-1.513 3.026 8.0941 2.179 9.8598 1.8259z" fill="#a59a99" filter="url(#fs)" stroke="#fafafb" stroke-width=".34791"/>
  <path d="m327.7 212.36c-0.55416 1.0636-10.014 1.2495-10.955 2.1911-1.1924 1.1925 4.4412 1.4607 3.6518 1.4607-0.35448 0 1.105 3.6424 3.104 1.6433 0.36068-0.36069 5.6603-2.7011 5.6603-2.1911 0 1.1435-1.4607-1.9605-1.4607-3.104z" fill="#a59a99" filter="url(#fr)" stroke="#fafafb" stroke-width=".24353"/>
  <path d="m357.83 245.95c-1.5907 5.7405 8.4734 11.246 11.503 8.2165 0.73036-0.73036-1.7292-1.2672-2.1911-2.1911-0.1911-0.38218 0.0764-1.9321-0.18259-2.1911-0.36691-0.36691-5.9539 0.13506-9.1295-3.8344z" fill="#a59a99" filter="url(#fq)" stroke="#fafafb" stroke-width=".34791"/>
  <path d="m366.41 249.79c-2.5161-0.64256-2.7639-3.4943-3.8344-4.5647-0.85901-0.85901-2.6683-1.025-3.6518-2.0085-1.1157-1.1157-4.8882-4.9299-4.9299-4.9299-0.73289 0 0.18259 1.4582 0.18259 2.1911 0 0.10846-1.7111-0.79815-1.0955-0.18259 3.9824 3.9824 6.2563 9.4947 13.329 9.4947z" fill="#a59a99" filter="url(#fp)" stroke="#fafafb" stroke-width=".34791"/>
  <path d="m353.08 237.55c-3.7631 0.15971-7.5643-0.99105-10.59-5.2951-0.50113-0.7128-4.0223-1.2834-5.1125-2.3737-0.79988-0.79988 2.0442-3.8701 2.3737-4.1996 0.15007-0.15007 6.8816 3.0472 7.3036 3.4692 0.85999 0.85999 1.045 2.8709 1.8259 3.6518 1.4519 1.4519 4.6301 2.5948 4.1996 4.7473z" fill="#a59a99" filter="url(#fo)" stroke="#fafafb" stroke-width=".34791"/>
  <path d="m338.47 225.14c-1.0422-0.6048-2.2652-0.20731-3.2866-0.54777-1.1868-0.39561-3.1194-1.6433-4.017-1.6433-0.45519 0-1.3841-0.43584-1.8259-0.73035-1.8027-1.2018 1.4204-1.4406 2.5562-2.0085 0.33287-0.16643 2.2197 1.0955 2.7388 1.0955 0.60863 0 1.8259-0.60863 1.8259 0 0 1.186 1.6568 1.4742 2.3737 2.1911 0.68337 0.68338-0.83093 0.71181-0.36518 1.6433 0.13609 0.27219 0.45817-0.41167 0.73036-0.54777 0.27218-0.13609-0.43513 0.62158-0.73036 0.54777z" fill="#a59a99" filter="url(#fn)" stroke="#fafafb" stroke-width=".34791"/>
  <path d="m328.43 221.3c-2.5062 0.6456-3.6775-0.39087-4.9299-1.6433-0.7766-0.7766 3.3807-3.01 3.104-3.2866-0.84831-0.84831-1.5797 0.97245-1.8259 1.0955-1.3106 0.6553-3.4345 0.51308-4.3822 1.4607-4.1746 4.1746 5.9461 4.044 8.034 2.3737z" fill="#a59a99" filter="url(#fm)" stroke="#fafafb" stroke-width=".34791"/>
  <path d="m328.43 215.83c-12.509 6.1813 3.6518 6.1582 3.6518 4.5647 0-1.4462-5.6603 0.44128-5.6603-2.3737 0-0.90403 1.558-1.065 2.0085-2.1911z" fill="#a59a99" filter="url(#fl)" stroke="#fafafb" stroke-width=".34791"/>
  <path d="m331.35 214.73c-1.1994 1.0066-2.4014 0.94064-3.2866 1.8259-4.284 4.284 4.3822 2.5407 4.3822 3.4692 0 0.33108-1.803-1.0726-1.8259-1.0955-1.2409-1.2409 0.8999-3.3519 0.73036-4.1996z" fill="#a59a99" filter="url(#fk)" stroke="#fafafb" stroke-width=".24353"/>
  <path d="m332.45 211.63c-1.2564 1.9629 4.5647 2.2887 4.5647 2.3737 0 1.0365-2.3711-0.5503-3.104 0.18259-0.71649 0.71649-4.5311 1.8596-5.6603 0.73036-1.7891-1.7891 3.0399-2.5908 4.1996-3.2866z" fill="#a59a99" filter="url(#fj)" stroke="#fafafb" stroke-width=".34791"/>
  <path d="m373.71 252.89c1.4862 1.8184-8.9614-2.7388-6.9384-2.7388 0.0984 0 4.7641 8.1746 6.9384 2.7388z" fill="#a59a99" filter="url(#fi)" stroke="#fafafb" stroke-width=".34791"/>
  <path d="m374.44 252.34c-2.4492-1.2351-7.7502-4.0984-8.7643-5.1125-0.65693-0.65692-2.3737-2.3898-2.3737-1.4607 0 0.49006 1.0784 1.0784 1.2781 1.2781 3.2078 3.2078 1.8779 3.13 6.9384 5.6603 1.1272 0.56363 2.9184-0.36617 4.017 0" fill="#a59a99" filter="url(#fh)" stroke="#fafafb" stroke-width=".69581"/>
  <path d="m363.49 244.67c-2.6471-1.84-3.1021-4.928-5.1125-6.9384-1.7189-1.7189-4.9298-1.6431-6.3906-3.104-0.18787-0.18787-1.6433-0.67467-1.6433-0.73036 0-1.8541 4.1505 5.0143 4.1996 5.1125 1.3097 2.6194 5.3726 6.3751 8.9469 5.6603z" fill="#a59a99" filter="url(#fg)" stroke="#fafafb" stroke-width=".34791"/>
  <path d="m357.83 236.64c-3.7815-0.22155-8.0535-1.8455-10.408-4.1996-0.80486-0.80486-0.20331-2.7596-1.0955-3.6518-0.95831-0.95831-4.6854-3.5312-2.3737-5.8429 0.61144-0.61144 2.0952-0.13463 2.9214-0.54776 4.9557-2.4779 7.3578 6.6274 10.042 9.3121 0.59206 0.59205 1.3771 1.6587 1.8259 2.5562 0.34132 0.68264-1.1048 2.7573-0.91295 2.3737z" fill="#a59a99" filter="url(#ff)" stroke="#fafafb" stroke-width=".17395"/>
  <path d="m374.99 251.8c-6.2052-1.6925-4.8628-7.6016-7.4862-10.225-0.91284-0.91284-4.0828-1.5266-5.2951-2.7388-0.29257-0.29257-3.0771-4.0439-3.8344-3.2866-1.2875 1.2875 2.1911 3.3653 2.1911 4.5647 0 4.0588 9.7202 10.745 14.425 11.686z" fill="#a59a99" filter="url(#fe)" stroke="#fafafb" stroke-width=".69581"/>
  <path d="m345.23 227.69c-4.1554 0.157-4.7056-2.6971-6.3906-4.3822-0.64084-0.64083-1.8389-0.74331-2.5563-1.4607-1.1734-1.1734 2.4252-2.9214 4.7473-2.9214 0.4907 0 0.29147 1.0587 0.73036 1.2781 0.49521 0.2476 1.8242 0.91122 2.1911 1.2781 0.26804 0.26805-1.0955 1.0352-1.0955 1.8259 0 1.5033 1.0398 4.1154 2.3737 4.3822z" fill="#a59a99" filter="url(#fd)" stroke="#fafafb" stroke-width=".34791"/>
  <path d="m337.74 220.02c-5.4246 4.0621-10.863-4.9299-3.2866-4.9299 1.3138 0-1.842 2.9054-0.91295 3.8344 0.85196 0.85197 2.8127 0.81818 4.1996 1.0955z" fill="#a59a99" filter="url(#fc)" stroke="#fafafb" stroke-width=".24353"/>
  <path d="m337.19 214.18c-1.3518 0.16328-4.8554 3.3612-3.4692 4.7473 2.1573 2.1573 7.6688-0.16218 7.6688 0 0 0.44379-6.9324-0.19254-4.1996-4.7473z" fill="#a59a99" filter="url(#fb)" stroke="#fafafb" stroke-width=".27832"/>
  <path d="m337.74 211.08c-6.457-1.2186-5.5216 2.5562 0.36518 2.5562 1.0237 0-1.1973-0.28437-1.2781-0.36518-0.29768-0.29767 0.82564-1.7545 0.91295-2.1911z" fill="#a59a99" filter="url(#fa)" stroke="#fafafb" stroke-width=".34791"/>
  <path d="m375.72 251.98c-1.4355-0.2364 1.8259-1.8549 1.8259-2.3737 0-0.77943-0.90958-1.2748-1.4607-1.8259-0.24345-0.24345 0.0609-1.0347-0.18259-1.2781-1.5874-1.5874-4.6939-2.3202-6.7558-4.3822-0.41151-0.41152-0.78392-1.6433-1.4607-1.6433-1.1177 0 2.4456 10.385 8.0339 11.503z" fill="#a59a99" filter="url(#ez)" stroke="#fafafb" stroke-width=".69581"/>
  <path d="m367.5 239.93c-2.6755 0.0704-6.1397-2.6705-7.8514-4.3822-1.912-1.912-5.0051-6.1328-2.7388-8.3991 0.19504-0.19505 1.0328-1.0356 1.2781-0.91295 0.46345 0.23172 0.62638 1.6966 0.73036 2.0085 0.639 1.917 3.6428 3.0861 4.3822 4.5647 1.4982 2.9965 1.1357 5.2827 4.1996 7.121z" fill="#a59a99" filter="url(#ey)" stroke="#fafafb" stroke-width=".34791"/>
  <path d="m350.16 221.67c-2.4888-0.97292-4.8133 1.4277-6.208 0.73036-0.49296-0.24648 0.5723-1.2536 0.18259-1.6433-0.31143-0.31143-3.7324-0.6497-2.5563-1.8259 0.0989-0.0989 1.3889 0.42058 1.6433 0.54777 1.0806 0.54032 3.7351-0.21568 4.3822 0 0.46832 0.15611 1.7874 1.7298 2.5562 2.1911z" fill="#a59a99" filter="url(#ex)" stroke="#fafafb" stroke-width=".10437"/>
  <path d="m358.19 226.05c0.47218-3.8779-8.21-9.6838-10.955-6.9384-1.0369 1.0369 3.4456 3.263 3.8344 3.6518 1.7284 1.7284 2.4485 5.0047 4.1996 6.7558 2.1473 2.1473 0.0225-1.118 0.73036-1.8259 0.39076-0.39076 1.6292-0.40258 1.8259-0.73035 0.62907-1.0485 0.3288-0.92205 1.0955-0.73036" fill="#a59a99" filter="url(#ew)" stroke="#fafafb" stroke-width=".34791"/>
  <path d="m374.26 245.22c0.15717-2.8893-8.872-16.325-10.59-14.607-2.4336 2.4336 4.6915 11.082 5.6603 12.051 1.2003 1.2003 4.2225 2.2733 5.8429 2.9214" fill="#a59a99" filter="url(#eu)" stroke="#fafafb" stroke-width=".48707"/>
  <path d="m363.85 230.25c-4.7476 1.2118-9.0585-7.2468 0 0z" fill="#a59a99" filter="url(#et)" stroke="#fafafb" stroke-width=".34791"/>
  <path d="m366.41 230.8c-1.2755-0.31229-2.2237-6.6059-4.3822-8.7643-0.96952-0.96953-8.1826-4.2334-9.1295-3.2866-0.32431 0.32431 2.688 2.896 3.104 3.104 1.0918 0.54589 0.60661 2.2499 1.4607 3.104 2.6564 2.6564 6.2367 5.3008 8.9469 5.8429z" fill="#a59a99" filter="url(#es)" stroke="#fafafb" stroke-width=".27832"/>
  <path d="m338.47 213.09c-0.499-0.12996-0.49018 1.2205-1.4607 2.1911-1.8915 1.8915 3.7488 4.1025 4.7473 3.104 0.74298-0.74298-5.4097-1.7566-3.2866-5.2951z" fill="#a59a99" filter="url(#er)" stroke="#fafafb" stroke-width=".34791"/>
  <path d="m343.22 211.81c-9.0801 0.0921-2.4142 6.6137-1.2781 5.4777 0.28632-0.28632-1.2656-1.6558-0.73036-2.1911 0.42604-0.42604 1.9476 0.24345 2.3737-0.18259 0.29912-0.29912-0.50273-0.50272-0.54777-0.54777-0.28699-0.28698 0.14217-2.3542 0.18259-2.5562z" fill="#a59a99" filter="url(#eq)" stroke="#fafafb" stroke-width=".34791"/>
  <path d="m344.5 210.53c-1.0307 1.0973-5.1437-0.88172-6.208 0.18259-0.53234 0.53234 0.20507 2.1911-0.54777 2.1911-1.2233 0 2.4285-0.36517 3.6518-0.36517 3.0829 0 2.0068-1.3502 3.104-2.0085 0.28106-0.16863 0.60864 0.24345 0.91295 0.36518-0.93684 0.25448-3.3098 3.0808-2.1911 4.1996 0.28398 0.28398 5.4777-0.19704 5.4777 0 0 0.0699-3.6261-1.4351-3.8344-1.6433-0.81582-0.81582 0.36424-1.6386 0.54777-2.5562" fill="#a59a99" filter="url(#ep)" stroke="#fafafb" stroke-width=".34791"/>
  <path d="m344.5 215.09c-2.6344-1.3823-3.2683 1.8625-2.7388 2.9214 0.42729 0.85459 5.5774 1.7262 6.3906 0.91295 0.71459-0.71459-5.8175-0.22487-3.6518-3.8344z" fill="#a59a99" filter="url(#eo)" stroke="#fafafb" stroke-width=".20874"/>
  <path d="m347.97 215.09c-1.005-0.40708-1.8742 0.36518-2.5563 0.36518-0.50145 0-0.87735 1.4963-0.36518 2.0085 0.25869 0.25868 3.8344 0.40731 3.8344 0.73035 0 0.19243-2.5262-1.0655-2.5563-1.0955-0.63293-0.63294 1.3892-1.8052 1.6433-2.0085z" fill="#a59a99" filter="url(#en)" stroke="#fafafb" stroke-width=".34791"/>
  <path d="m348.88 214.55c-1.2356-0.60359-3.2359 2.5563-0.54777 2.5563 1.0452 0 2.0865 0.73035 2.9214 0.73035h0.54777c-1.213 0-2.075-1.162-2.5562-1.6433-1.6518-1.6518 1.9604-0.71306-0.36518-1.6433z" fill="#a59a99" filter="url(#em)" stroke="#fafafb" stroke-width=".17395"/>
  <g transform="translate(-51.97 -266.84)">
   <path d="m447.02 481.02-0.54777-0.18259c-11.502-1.7789-25.764-2.5562-39.074-2.5562-3.5004 0-9.2595-0.78294-10.773 0.73036-2.2871 2.2872 10.36 8.7643 13.694 8.7643 1.2013 0 2.8188 0.99293 3.4692 1.6433 2.0815 2.0815 1.9552 8.1632 4.5647 10.773 1.1154 1.1154 2.984 3.1666 4.3822 4.5647 1.2118 1.2118 1.2861 3.4772 2.5562 4.7473 0.46746 0.46745 0.0605 2.4947 0.18259 2.7388 0.3475 0.69499 1.4607 0.4231 1.4607 1.6433 0 5.5545 7.7428 9.46 9.8598 13.694 0.25315 0.50629 2.8298 6.4816 2.9214 6.5732 0.19246 0.19246 0.36517 1.0025 0.36517 0.73035 0-6.9036 3.1865-4.4646 4.1996-5.4777 0.92079-0.9208-2.652-4.6516-1.2781-6.0255 1.0854-1.0854 4.7697 8.0116 5.1125 7.6688 1.3594-1.3594-0.0903-7.6667-0.73036-8.9469-0.43037-0.86074-1.8753-2.7388-0.91295-2.7388 0.0426 0-0.0592 2.4378 0 2.5562 0.5615 1.123 1.591 2.3213 2.3737 3.104 1.2528 1.2528 2.072 3.7153 3.2866 4.9299 6e-3 6e-3 -0.287-3.678 0.36518-2.3737 0.45459 0.90919 0.71616 1.9943 1.2781 2.5562 0.11977 0.11978 1.6433 0.47164 1.6433 0.54777v-0.36518c0-0.92629-1.5014-1.8666-1.8259-2.1911-0.42539-0.42539 0.32432-1.8668-0.18259-2.3737-0.47367-0.47366-0.41384-11.667-2.3737-14.607-1.3778-2.0668-1.6433-6.2948-1.6433-9.1295 0-0.83106 3.7946 1.9289 2.1911-1.2781-1.5953-3.1905-2.0601-11.372-4.3822-13.694-0.64307-0.64307-0.47801-5.5772-0.73036-6.208" fill="#b29f94"/>
   <path d="m446.84 479.73-0.54777-0.18259c-11.502-1.7789-25.764-2.5562-39.074-2.5562-3.5004 0-9.2595-0.78294-10.773 0.73036-2.2871 2.2872 10.36 8.7643 13.694 8.7643 1.2013 0 2.8188 0.99293 3.4692 1.6433 2.0815 2.0815 1.9552 8.1632 4.5647 10.773 1.1154 1.1154 2.984 3.1666 4.3822 4.5647 1.2118 1.2118 1.2861 3.4772 2.5562 4.7473 0.46746 0.46745 0.0605 2.4947 0.18259 2.7388 0.3475 0.69499 1.4607 0.4231 1.4607 1.6433 0 5.5545 7.7428 9.46 9.8598 13.694 0.25315 0.50629 2.8298 6.4816 2.9214 6.5732 0.19246 0.19246 0.36517 1.0025 0.36517 0.73035 0-6.9036 3.1865-4.4646 4.1996-5.4777 0.92079-0.9208-2.652-4.6516-1.2781-6.0255 1.0854-1.0854 4.7697 8.0116 5.1125 7.6688 1.3594-1.3594-0.0903-7.6667-0.73036-8.9469-0.43037-0.86074-1.8753-2.7388-0.91295-2.7388 0.0426 0-0.0592 2.4378 0 2.5562 0.5615 1.123 1.591 2.3213 2.3737 3.104 1.2528 1.2528 2.072 3.7153 3.2866 4.9299 6e-3 6e-3 -0.287-3.678 0.36518-2.3737 0.45459 0.90919 0.71616 1.9943 1.2781 2.5562 0.11977 0.11978 1.6433 0.47164 1.6433 0.54777v-0.36518c0-0.92629-1.5014-1.8666-1.8259-2.1911-0.42539-0.42539 0.32432-1.8668-0.18259-2.3737-0.47367-0.47366-0.41384-11.667-2.3737-14.607-1.3778-2.0668-1.6433-6.2948-1.6433-9.1295 0-0.83106 3.7946 1.9289 2.1911-1.2781-1.5953-3.1905-2.0601-11.372-4.3822-13.694-0.64307-0.64307-0.47801-5.5772-0.73036-6.208" fill="url(#dw)"/>
  </g>
  <path d="m345.04 211.17c-0.30526 7.3175 12.406 7.4676 15.489 10.55 0.53867 0.53868 1.5787 0.23182 2.0203 0.67344 2.485 2.485 0.70565 7.2155 3.1427 9.6526 1.8681 1.8681 4.4386 5.1121 6.5099 7.1833 1.4514 1.4514 0.80931 6.1968 2.2448 7.6323 0.88729 0.8873 3.5916 5.1678 3.5916 6.0609 0 1.9151 5.8364 4.8293 5.8364 4.9385 0 3.7249 3.8161 4.7723 3.8161 8.9791 0 0.0481 0.90583 1.5714 0.89791 1.5714-0.0206 0 0.0358-1.7601 0-1.7958-2.3152-2.3152-2.2612-6.7508-4.714-9.2036-1.1365-1.1365 2.2997-4.8836 0.67343-6.5099-0.11998-0.11999-5.8618-8.3057-3.8161-8.3057 0.0585 0-2.0203 3.4563-2.0203 6.5099 0 3.0381 2.8055 6.5099 2.0203 6.5099-2.9433 0-0.54013-12.753-0.67344-13.02-0.19018-0.38038-7.903-7.8567-6.5099-7.8567 1.0212 0-0.90147 4.037 0.44896 5.3875 1.069 1.069 2.7958 8.7546 1.3469 8.7546-0.97274 0 1.1224-1.721 1.1224-2.6937 0-4.865-3.5266-9.3631-6.5099-12.346-1.085-1.085-3.4046-0.93532-4.4896-2.0203-0.8609-0.86091 0.37946-5.318 0.67344-5.612 0.14302-0.14302-0.10731-2.4693 0-2.4693 1.3259 0 0.18482 2.8786 1.1224 3.8161 0.98135 0.98135 3.8161 5.2136 3.8161 6.9588 0 1.557 2.6937 5.3732 2.6937 3.8161 0-0.43193 0.57234-5.9375-0.22448-6.7344-1.862-1.862-7.6323-6.1432-7.6323-8.0812 0-1.6266 0.0314-3.7847-0.89791-4.714-0.59861-0.5986-2.6424-1.7958-1.7958-1.7958 0.39777 0-0.72657 6.9588-0.89792 6.9588-1.0476 0 0.33127-2.1489 0-3.1427-0.60053-1.8016-4.7746-4.2954-6.0609-4.9385-1.8672-0.9336-0.56506 5.5036 0.22448 4.714 0.25323-0.25323-0.58948-1.2629-0.67344-1.3469-0.63535-0.63535-0.11468-1.4616-0.67343-2.0203-1.5743-1.5743-6.1509 0.13448-7.6323-1.3469-0.47429-0.4743 0.31873-2.375-0.22447-2.9182-0.0767-0.0767-2.2448-1.5927-2.2448-1.7958 0-0.38154 0.76043 0.10383 1.1224 0.22448 2.7894 0.92981 5.041 5.163 6.2854 5.163 0.36679 0-1.5183-1.2938-2.2448-2.0203-0.87397-0.87398-1.1768-4.3739-0.22447-2.4693 0.90214 1.8043 3.4447 0.0775 5.163 1.7958 0.66296 0.66296 0.68391 3.1322 1.3469 2.4693 0.45524-0.45524-3.5151-5.3875-4.2651-5.3875-1.2181 0-4.8097 0.67344-3.5916 0.67344 4.916 0 5.9768-1.431 9.877 2.4693 2.1973 2.1973 2.9182 6.4229 2.9182 6.2854 0-1.1319-1.5371-4.0063-2.2448-4.714-0.88998-0.88998 0.67333-2.9183-0.22448-3.8161-0.70531-0.70531-1.7716-1.9202-3.3672-1.1224-2e-3 9.4e-4 -1.1224 0.77116-1.1224 0.44896 0-1.9954 11.312 1.8432 9.4281 5.612-2.2027 4.4054 0.85046-3.6391-0.89791-5.3875-0.35331-0.35331-1.8818-1.4161-2.9182-0.89791-0.66926 0.33463-1.7958 2.0951-1.7958 1.3469 0-2.9069 9.0423 0.73659 10.102 1.7958 2.0021 2.0021 7.806 0.17376 4.9385-2.6937-0.25127-0.25127 0.78784 3.0326 2.6937 4.9385 0.48925 0.48924 6.5248 10.775 3.8161 10.775-0.83659 0-0.53084-1.6532-1.1224-2.2448-3.2716-3.2716-8.3057-3.3794-8.3057-8.9791 0-0.52378-0.52379-1.5714 0-1.5714 0.58923 0 2.1898 9.9916 2.2448 10.102 0.36458 0.72917-0.0971 2.5966 0.44896 3.1427 0.30851 0.30852 1.1097 1.1224 0.67343 1.1224-3.7962 0-7.36-12.17-9.6526-9.877-0.86472 0.86472 3.8352 5.612 2.0203 5.612-0.19194 0 5.8035 5.579 6.7344 6.5099 0.99061 0.99061 0.43346 1.7803 1.5714 2.9182 1.0486 1.0486 3.0004 1.6536 4.0406 2.6937 1.4517 1.4517 0.62548 5.3395 2.2448 6.9588 1.6287 1.6287 3.8868 3.6623 5.612 5.3875 0.73232 0.73232 0.20539 3.329 0.67343 4.2651 0.26173 0.52347 1.3469 2.3428 1.3469 2.4693 0 0.34958-1.739-3.8161-4.2651-3.8161-8e-3 0-0.22447 1.9945-0.22447 2.2448 0 0.55935-0.83288 1.7014-0.44896 2.4693 1.1325 2.265 4.109 4.558 5.8364 6.2854 0.58441 0.58441 2.4693-0.602 2.4693 0.22448 0 0.0959 1.0931-3.3964-0.67344-5.163-0.27049-0.27049-8.0306-10.102-5.612-10.102 2.9944 0 9.086 17.851 10.775 16.162 3.2607-3.2607-4.0259-13.664-5.8364-17.285-0.66489-1.3298-1.7234-2.3969-2.6937-3.3672-0.19077-0.19077-0.44896-0.94323-0.44896-0.67344 0 2.3666 0.67344 5.3743 0.67344 7.1833 0 0.30852 0.22447 1.2064 0.22447 0.89791 0-2.8539-0.15802-9.5071-2.6937-10.775-1.2335-0.61677-3.2346-1.9796-3.8161-3.1427-0.79095-1.5819-1.1282-3.8219-2.2448-4.9385-0.21774-0.21774-0.98361 3.4529-1.3469 3.8161-0.42658 0.42658 0.82774 1.7958 0.22448 1.7958-0.13061 0 1.2783-5.9735 0.89791-6.7344-0.4161-0.8322-6.0609-2.3938-6.0609-2.6937 0-0.16357 1.0324 0.40395 1.1224 0.44896 1.5118 0.75589 3.8077 0.44048 4.9385 1.5714 0.4703 0.4703 2.6796 6.2996 4.0406 4.9385 0.98429-0.98429-4.4373-9.877-4.0406-9.877 0.90136 0 2.6925 6.7331 3.3672 7.4078 1.8581 1.8581 4.5388 3.6408 6.5099 5.612 1.0752 1.0752 0.89791 3.2012 0.89791 5.163 0 2.1282 0.31441 7.0488 2.9182 9.6526 1.7746 1.7746 3.1427 4.2179 3.1427 4.0406 0-1.2061 1.6658-5.0685 0.89791-5.8364-5.2725-5.2725-8.0854-17.064-10.999-19.979-1.0622-1.0622-2.7149-2.287-3.3672-3.5917-1.4108-2.8216-4.4896-9.8278-4.4896-14.142 0-0.22053-4.7794-1.506-4.4896-1.7958 1.496-1.496 10.55 5.6912 10.55 4.9385 0-2.5201-5.8194-5.146-2.4693-1.7958 1.6175 1.6175 3.1962 4.5431 4.9385 6.2854 0.52378 0.52378-0.52379 2.6189 0 3.1427 0.35618 0.35618 1.3469 1.694 1.3469 2.2448 0 2.126 1.1431-0.87722-0.22448-2.2448-0.41518-0.41518-4.4896-2.9311-4.4896-3.3672 0-1.3489-0.72937 3.0868 0.22448 4.0406 2.1794 2.1794 1.9428 7.1058 4.0406 9.2036 1.6496 1.6496 4.4801 3.3482 5.3875 5.163 2.111 4.222 3.6389 13.244 8.0812 13.244 1.5278 0-4.4066-11.365-4.714-11.673-1.3971-1.3971-1.3518-4.7042-1.5713-4.2651-0.49808 0.99615-1.1224 2.8753-1.1224 4.2651 0 0.52378 0.52379 1.5713 0 1.5713-1.1544 0 0.89792-3.3072 0.89792-5.3875 0-3.8103-1.2784-4.6456-3.5917-6.9588-2.3344-2.3344-3.8198-5.8364-3.8161-5.8364 0.35486 0 1.9697 3.7656 2.4693 4.2651 1.4617 1.4617 4.9385 4.5221 4.9385 6.5099 0 0.48288 1.2609-4.3511-0.67344-6.2854-0.67816-0.67816-1.7829-2.8924-2.2448-3.8161-1.3183-2.6367-3.0181-6.2854-2.9182-6.2854 0.63932 0-1.1565 0.67343-1.7958 0.67343-0.74074 0-1.1224 0.71304-1.1224 1.3469 0 0.65644 3.4588-2.286 2.4693-4.2651-1.4345-2.8691-4.1578-1.913-6.0609-3.8161-0.22448-0.22447-0.9909-0.67343-0.67344-0.67343 1.1971 0 5.7228 3.2536 6.7344 4.2651 0.38702 0.38702 2.0571 0.0368 2.4693 0.44895 0.24859 0.2486 2.1563 1.6598 2.4693 1.3469 0.17211-0.17211-2.913-4.9385-2.6937-4.9385 0.0118 0 0.15504 1.2774 0.22448 1.3469 1.8131 1.8131 3.0721 6.2148 5.163 8.3057 0.75626 0.75626-0.22448 4.8043-0.22448 5.612 0 7.1901 2.2448 5.2692 2.2448 12.346 0 1.4852 0.78142 5.271 2.0203 6.5099 0.10276 0.10276-0.017 2.4863 0.44895 2.0203 0.95279-0.95278-1.8999-6.3894-2.4693-6.9588-1.1972-1.1972 0.74826-5.5371-0.44895-6.7344-0.68783-0.68783 2.2304 0.68783 2.9182 0 0.64041-0.64041-0.62408-3.493-0.89791-4.0406-1.744-3.4879-2.3315-8.8414-4.714-11.224-1.085-1.085 0.63602-4.9759-0.44896-6.0609-0.54088-0.54088-3.6197-1.1294-4.4896-1.3469" fill="none" filter="url(#ed)" opacity=".58407" stroke="#fefefe" stroke-width=".7"/>
  <path d="m247.18 270.86c7.6434-0.74833 15.89-2.9191 19.846-4.8971" fill="none" filter="url(#eh)" stroke="#000003" stroke-width=".10437"/>
  <path d="m256.72 281.94c5.9987-1.7667 10.733-4.0777 16.496-6.9591" fill="none" filter="url(#el)" stroke="#000" stroke-width=".15"/>
  <path d="m271.41 285.29c5.7116-0.34488 10.02-2.948 14.434-5.1549" fill="none" filter="url(#ek)" stroke="#000" stroke-width=".3"/>
  <path d="m276.83 288.64c4.0201-1.2152 9.9422-2.9832 12.629-5.6704" fill="none" filter="url(#ej)" stroke="#000" stroke-width=".2"/>
  <path d="m284.3 290.96c4.8693-0.42475 10.196-2.7213 12.887-5.4126" fill="none" filter="url(#ei)" stroke="#000" stroke-width=".3"/>
  <path d="m321.79 327.79c-3.0232 0.58183-11.43-2.1279-13.082-0.47571-0.0649 0.0649 0.67833 3.9058 0.71357 4.5192 0.43225 7.5244-1.357 15.125 0.23785 18.553 1.2877 2.7675 0.47572 7.0814-0.23785 12.606-1.0888 4.3377-1.9215 7.5342-3.8057 9.5142-0.52394 0.52394-3.2323 4.6169-2.3786 5.4707 1.9515 1.9515 5.9547 1.1976 8.0871 3.33 3.515 2.9169 5.756 5.0425 9.0385 8.3249 7.4091 7.4091 15.114 3.6769 21.169-2.8543 1.6494-1.779 6.9894-0.0915 8.8006-1.9028 1.6098-1.6098-21.95-5.5383-25.451-9.9899-5.2518-6.6794-6.7152-16.301-7.1357-27.353-0.0547-1.4376-0.15884-6.739 0.23786-8.3249 0.31073-1.2423 2.215-2.2893 2.8543-3.5678 1.4494-2.8988-3.3029-5.7221 0.95142-7.8492z" fill="#4d4d4d" stroke="#000" stroke-width="1px"/>
  <path d="m328.42 330.01c2.0042 0.73761 20.356-2.0329 27.533 0.22026-2.8634 1.5994-4.2533 3.2842-5.0661 5.0661-1.1085 2.4301 1.5418 5.5745 1.5418 7.7092 0 6.5829-5.9686 37.907 0.96256 40.643 9.7331 3.8427 29.69 1.0792 32.999 5.0743 1.7054 2.0593-4.7701 2.7189-3.9648 3.5242 2.2905 2.2905 1.461 4.0007-0.88105 4.6256-3.6927 0.9852-5.9554 1.5306-7.3017 4.544-1.464 3.2768-11.142 0.40968-14.024-2.4719-4.325-1.5866-9.3648-3.8655-16.78-4.7153-1.7923-0.19799-2.6056-0.48441-3.8342-1.7131 0 0-2.4974-0.98608-1.6399-3.7037 1.3152-4.1683 5.2131-22.237 5.2131-28.186 0-2.818-5.9478-22.798-7.489-23.568-1.3471-0.67356-1.8735-4.737-2.8634-5.7269-0.61111-0.6111-4.5228-1.3216-4.4053-1.3216z" fill="#4d4d4d" stroke="#000" stroke-width="1px"/>
  <path d="m334.37 328.25c1.2557 0.9368 8.228 8.2918 11.013 5.5066 0.0828-0.0828 1.5688-2.1757 1.7621-1.9824 1.1838 1.1838-0.10144 5.1675 2.8634 2.2026 0.29698-0.29698 5.7132-4.1162 4.8458-4.4053-2.9952-0.99839-10.158-1.5681-12.335-3.7445-0.23592-0.23592-3.4951-1.7912-3.7445-1.5418-0.45549 0.4555 2.4833 2.3625 1.9824 2.8634-1.2793 1.2793-4.3179 0.0664-6.3877 1.1013z" fill="#520" filter="url(#dn)" stroke="#fafbfb" stroke-width="1px"/>
  <path d="m336.13 329.57c-0.81755 0.97213-2.4363 0.23362-3.0837 0.88106-0.83677 0.83676 2.6872 6.2115 3.0837 6.6079 0.72251 0.72251 2.866 0.44312 3.5242 1.1013 1.9059 1.9059 1.7432-2.1837 2.6432-3.0837 0.19093-0.19093-0.15459-2.6432 0-2.6432 0.33101 0-3.3469-1.1711-6.1674-2.8634z" fill="#483737" filter="url(#do)" stroke="#fefbfc" stroke-width="1px"/>
  <path d="m320.93 328.03c-1.62-0.28959-3.8424 0.50173-5.2864-0.22027-0.51007-0.25503-6.4527-0.97131-6.8282-0.22026-1.5251 3.0501 2.0096 17.648 3.5242 19.163 0.24182 0.24183 2.1022 5.4872 2.4229 4.8458 1.0586-2.1171-0.4573-8.133 1.3216-9.9119 1.1753-1.1753 4.8074-5.6499 5.5066-7.0485 1.0655-2.1309-3.6408-2.883-0.66079-6.6079z" fill="url(#ev)"/>
  <path d="m318.95 338.38c-7.0627 6.9385-2.8784 29.06 2.4229 34.361 0.66809 0.66809 5.9663 5.4874 6.8282 4.6256 0.40884-0.40883-3.2506-3.0303-3.5242-3.304-2.2935-2.2935-4.8747-6.2543-5.5066-9.0308-1.4926-6.5587-3.5242-18.321-0.22026-26.652z" fill="#fbfafa" filter="url(#dp)"/>
 </g>
</svg>
